<svg width="702" height="523" viewBox="0 0 702 523" fill="none" xmlns="http://www.w3.org/2000/svg">
<path d="M701.901 459.604H0V459.955H701.901V459.604Z" fill="#EBEBEB"/>
<path d="M631.57 482.191H585.076V482.542H631.57V482.191Z" fill="#EBEBEB"/>
<path d="M464.967 486.01H452.768V486.361H464.967V486.01Z" fill="#EBEBEB"/>
<path d="M583.673 469.164H556.734V469.515H583.673V469.164Z" fill="#EBEBEB"/>
<path d="M134.273 471.523H73.6433V471.874H134.273V471.523Z" fill="#EBEBEB"/>
<path d="M155.668 471.523H146.781V471.874H155.668V471.523Z" fill="#EBEBEB"/>
<path d="M316.066 477.447H184.558V477.797H316.066V477.447Z" fill="#EBEBEB"/>
<path d="M332.701 396.995H61.6408C59.5174 396.991 57.4821 396.145 55.9819 394.642C54.4817 393.139 53.6392 391.103 53.6392 388.979V7.94551C53.6576 5.83423 54.5084 3.8155 56.0066 2.32781C57.5048 0.840116 59.5295 0.00361674 61.6408 0H332.701C334.827 0 336.866 0.84451 338.369 2.34775C339.872 3.85098 340.716 5.88981 340.716 8.0157V388.979C340.716 391.105 339.872 393.144 338.369 394.647C336.866 396.15 334.827 396.995 332.701 396.995ZM61.6408 0.280761C59.6104 0.28448 57.6645 1.09365 56.2301 2.53067C54.7957 3.96769 53.9901 5.91512 53.9901 7.94551V388.979C53.9901 391.01 54.7957 392.957 56.2301 394.394C57.6645 395.831 59.6104 396.64 61.6408 396.644H332.701C334.732 396.64 336.68 395.832 338.116 394.395C339.553 392.958 340.362 391.011 340.366 388.979V7.94551C340.362 5.91383 339.553 3.96643 338.116 2.52981C336.68 1.0932 334.732 0.284472 332.701 0.280761H61.6408Z" fill="#EBEBEB"/>
<path d="M636.357 396.995H365.283C363.158 396.991 361.122 396.146 359.619 394.643C358.117 393.141 357.271 391.104 357.267 388.979V7.94551C357.29 5.83295 358.143 3.81424 359.644 2.32693C361.144 0.839626 363.17 0.00357729 365.283 0H636.357C638.466 0.00730608 640.487 0.845438 641.982 2.33274C643.477 3.82003 644.326 5.83666 644.345 7.94551V388.979C644.345 391.1 643.504 393.135 642.007 394.637C640.51 396.14 638.478 396.987 636.357 396.995ZM365.283 0.280761C363.251 0.284472 361.304 1.0932 359.867 2.52981C358.431 3.96643 357.622 5.91383 357.618 7.94551V388.979C357.622 391.011 358.431 392.958 359.867 394.395C361.304 395.832 363.251 396.64 365.283 396.644H636.357C638.389 396.64 640.336 395.832 641.773 394.395C643.209 392.958 644.018 391.011 644.022 388.979V7.94551C644.018 5.91383 643.209 3.96643 641.773 2.52981C640.336 1.0932 638.389 0.284472 636.357 0.280761H365.283Z" fill="#EBEBEB"/>
<path d="M231.838 287.541H78.2761V460.321H231.838V287.541Z" fill="#E0E0E0"/>
<path d="M224.215 294.419H85.8984V322.242H224.215V294.419Z" fill="#EBEBEB"/>
<path d="M224.215 329.472H85.8984V357.295H224.215V329.472Z" fill="#EBEBEB"/>
<path d="M224.215 364.525H85.8984V447.49H224.215V364.525Z" fill="#EBEBEB"/>
<path d="M161.437 299.178H148.564C146.88 299.178 145.226 298.739 143.764 297.904C142.301 297.07 141.082 295.869 140.225 294.419H169.705C168.855 295.859 167.647 297.053 166.198 297.887C164.749 298.721 163.109 299.166 161.437 299.178Z" fill="#E0E0E0"/>
<path d="M161.437 334.189H148.564C146.88 334.189 145.226 333.75 143.764 332.915C142.301 332.081 141.082 330.879 140.225 329.43H169.705C168.855 330.869 167.647 332.064 166.198 332.898C164.749 333.732 163.109 334.177 161.437 334.189Z" fill="#E0E0E0"/>
<path d="M161.437 369.312H148.564C146.88 369.312 145.226 368.873 143.764 368.038C142.301 367.204 141.082 366.002 140.225 364.553H169.705C168.855 365.992 167.647 367.187 166.198 368.021C164.749 368.855 163.109 369.3 161.437 369.312Z" fill="#E0E0E0"/>
<path d="M607.13 91.3312H432.188V266.273H607.13V91.3312Z" fill="#E9E9E9"/>
<path d="M600.827 98.2661H439.39V259.703H600.827V98.2661Z" fill="#F4F4F4"/>
<path d="M480.254 98.2661L439.39 251.309V168.456L458.088 98.2661H480.254Z" fill="white"/>
<path d="M498.518 98.2661L455.421 259.703H447.293L490.39 98.2661H498.518Z" fill="white"/>
<path d="M600.827 142.289V225.156L591.674 259.703H569.508L600.827 142.289Z" fill="white"/>
<path d="M522.467 91.3312H516.852V266.273H522.467V91.3312Z" fill="#E9E9E9"/>
<path d="M569.269 85.7863C569.269 85.7863 573.102 143.342 595.563 171.418C595.563 171.418 577.903 244.29 577.903 272.366H607.846V85.6319L569.269 85.7863Z" fill="#E0E0E0"/>
<path d="M469.206 85.7863C469.206 85.7863 465.206 143.342 442.745 171.418C442.745 171.418 460.236 244.289 460.236 272.365H430.967V85.6318L469.206 85.7863Z" fill="#E0E0E0"/>
<path d="M350.95 523C501.273 523 623.133 515.885 623.133 507.109C623.133 498.333 501.273 491.218 350.95 491.218C200.628 491.218 78.7671 498.333 78.7671 507.109C78.7671 515.885 200.628 523 350.95 523Z" fill="#F5F5F5"/>
<path d="M186.312 270.484H359.373L370.182 281.715V213.616C370.182 209.633 368.6 205.812 365.783 202.995C362.966 200.178 359.145 198.596 355.162 198.596H186.312C184.338 198.592 182.381 198.978 180.556 199.731C178.73 200.484 177.071 201.59 175.673 202.985C174.275 204.38 173.166 206.038 172.41 207.862C171.653 209.686 171.264 211.641 171.264 213.616V255.492C171.267 257.464 171.66 259.417 172.418 261.238C173.176 263.059 174.286 264.713 175.683 266.105C177.08 267.497 178.738 268.6 180.562 269.352C182.386 270.103 184.34 270.488 186.312 270.484Z" fill="#0D98A2"/>
<path opacity="0.4" d="M186.312 270.484H359.373L370.182 281.715V213.616C370.182 209.633 368.6 205.812 365.783 202.995C362.966 200.178 359.145 198.596 355.162 198.596H186.312C184.338 198.592 182.381 198.978 180.556 199.731C178.73 200.484 177.071 201.59 175.673 202.985C174.275 204.38 173.166 206.038 172.41 207.862C171.653 209.686 171.264 211.641 171.264 213.616V255.492C171.267 257.464 171.66 259.417 172.418 261.238C173.176 263.059 174.286 264.713 175.683 266.105C177.08 267.497 178.738 268.6 180.562 269.352C182.386 270.103 184.34 270.488 186.312 270.484Z" fill="white"/>
<path d="M349.546 216.185H193.724" stroke="#0D98A2" stroke-width="2" stroke-linecap="round" stroke-linejoin="round"/>
<path d="M349.546 233.031H193.724" stroke="#0D98A2" stroke-width="2" stroke-linecap="round" stroke-linejoin="round"/>
<path d="M318.663 249.877H193.724" stroke="#0D98A2" stroke-width="2" stroke-linecap="round" stroke-linejoin="round"/>
<path opacity="0.3" d="M186.312 270.484H359.373L370.182 281.715V213.616C370.182 209.633 368.6 205.812 365.783 202.995C362.966 200.178 359.145 198.596 355.162 198.596H186.312C184.338 198.592 182.381 198.978 180.556 199.731C178.73 200.484 177.071 201.59 175.673 202.985C174.275 204.38 173.166 206.038 172.41 207.862C171.653 209.686 171.264 211.641 171.264 213.616V255.492C171.267 257.464 171.66 259.417 172.418 261.238C173.176 263.059 174.286 264.713 175.683 266.105C177.08 267.497 178.738 268.6 180.562 269.352C182.386 270.103 184.34 270.488 186.312 270.484Z" fill="white"/>
<path d="M310.24 176.43H137.193L126.384 187.66V119.562C126.384 115.58 127.965 111.762 130.778 108.945C133.592 106.129 137.409 104.545 141.391 104.541H310.24C314.221 104.545 318.038 106.129 320.852 108.945C323.666 111.762 325.246 115.58 325.246 119.562V161.437C325.239 165.414 323.655 169.225 320.842 172.035C318.029 174.846 314.216 176.426 310.24 176.43Z" fill="#0D98A2"/>
<path d="M192.32 122.131H303.221" stroke="white" stroke-width="2" stroke-linecap="round" stroke-linejoin="round"/>
<path d="M192.321 138.976H303.221" stroke="white" stroke-width="2" stroke-linecap="round" stroke-linejoin="round"/>
<path d="M192.321 155.822H272.337" stroke="white" stroke-width="2" stroke-linecap="round" stroke-linejoin="round"/>
<path d="M248.08 82.375H359.373L370.182 93.6054V39.545C370.179 35.5637 368.594 31.7467 365.778 28.9328C362.961 26.119 359.143 24.5384 355.162 24.5384H248.08C246.106 24.5347 244.151 24.92 242.326 25.6723C240.501 26.4247 238.843 27.5292 237.445 28.9229C236.048 30.3166 234.938 31.972 234.181 33.7946C233.424 35.6173 233.033 37.5713 233.031 39.545V67.3824C233.035 69.3549 233.427 71.3074 234.185 73.1284C234.943 74.9494 236.053 76.6032 237.45 77.9954C238.848 79.3876 240.506 80.4909 242.329 81.2423C244.153 81.9938 246.107 82.3786 248.08 82.375Z" fill="#0D98A2"/>
<path opacity="0.4" d="M248.08 82.375H359.373L370.182 93.6054V39.545C370.179 35.5637 368.594 31.7467 365.778 28.9328C362.961 26.119 359.143 24.5384 355.162 24.5384H248.08C246.106 24.5347 244.151 24.92 242.326 25.6723C240.501 26.4247 238.843 27.5292 237.445 28.9229C236.048 30.3166 234.938 31.972 234.181 33.7946C233.424 35.6173 233.033 37.5713 233.031 39.545V67.3824C233.035 69.3549 233.427 71.3074 234.185 73.1284C234.943 74.9494 236.053 76.6032 237.45 77.9954C238.848 79.3876 240.506 80.4909 242.329 81.2423C244.153 81.9938 246.107 82.3786 248.08 82.375Z" fill="white"/>
<path d="M349.546 44.9216H255.491" stroke="#0D98A2" stroke-width="2" stroke-linecap="round" stroke-linejoin="round"/>
<path d="M318.662 61.7673H255.491" stroke="#0D98A2" stroke-width="2" stroke-linecap="round" stroke-linejoin="round"/>
<path opacity="0.3" d="M248.08 82.375H359.373L370.182 93.6054V39.545C370.179 35.5637 368.594 31.7467 365.778 28.9328C362.961 26.119 359.143 24.5384 355.162 24.5384H248.08C246.106 24.5347 244.151 24.92 242.326 25.6723C240.501 26.4247 238.843 27.5292 237.445 28.9229C236.048 30.3166 234.938 31.972 234.181 33.7946C233.424 35.6173 233.033 37.5713 233.031 39.545V67.3824C233.035 69.3549 233.427 71.3074 234.185 73.1284C234.943 74.9494 236.053 76.6032 237.45 77.9954C238.848 79.3876 240.506 80.4909 242.329 81.2423C244.153 81.9938 246.107 82.3786 248.08 82.375Z" fill="white"/>
<path d="M178.859 127.746C178.859 134.687 176.8 141.472 172.944 147.244C169.088 153.015 163.607 157.513 157.194 160.17C150.781 162.826 143.725 163.521 136.917 162.167C130.109 160.813 123.856 157.47 118.948 152.562C114.039 147.654 110.697 141.4 109.343 134.593C107.989 127.785 108.684 120.729 111.34 114.316C113.996 107.903 118.494 102.422 124.266 98.5656C130.037 94.7093 136.822 92.651 143.764 92.651C148.381 92.6212 152.958 93.5085 157.229 95.2617C161.5 97.0148 165.381 99.5987 168.646 102.864C171.911 106.128 174.495 110.009 176.248 114.281C178.001 118.552 178.888 123.129 178.859 127.746Z" fill="#0D98A2"/>
<path opacity="0.5" d="M178.859 127.746C178.859 134.687 176.8 141.472 172.944 147.244C169.088 153.015 163.607 157.513 157.194 160.17C150.781 162.826 143.725 163.521 136.917 162.167C130.109 160.813 123.856 157.47 118.948 152.562C114.039 147.654 110.697 141.4 109.343 134.593C107.989 127.785 108.684 120.729 111.34 114.316C113.996 107.903 118.494 102.422 124.266 98.5656C130.037 94.7093 136.822 92.651 143.764 92.651C148.381 92.6212 152.958 93.5085 157.229 95.2617C161.5 97.0148 165.381 99.5987 168.646 102.864C171.911 106.128 174.495 110.009 176.248 114.281C178.001 118.552 178.888 123.129 178.859 127.746Z" fill="white"/>
<path d="M169.299 151.779C166.059 155.213 162.159 157.956 157.833 159.845C153.507 161.733 148.843 162.728 144.123 162.768C139.403 162.809 134.723 161.895 130.364 160.081C126.006 158.268 122.06 155.592 118.762 152.214C120.404 151.905 122.187 151.583 124.012 151.302C125.556 151.049 127.156 150.81 128.729 150.628C137.036 149.564 145.398 148.983 153.773 148.887C154.797 148.887 155.808 149 156.819 149C159.43 149.154 161.915 149.421 164.062 149.687C165.959 149.921 167.763 150.641 169.299 151.779Z" fill="#2E353A"/>
<path d="M161.507 101.663C161.507 101.663 163.374 114.171 155.303 120.025C147.231 125.879 147.231 97.5639 147.231 97.5639L161.507 101.663Z" fill="#2E353A"/>
<path d="M128.687 150.558C134.063 155.443 147.231 153.632 147.231 153.632C147.231 153.632 155.457 151.386 153.731 148.817C148.887 148.017 146.543 145.757 145.574 142.865C145.044 141.072 144.877 139.192 145.083 137.334C145.164 136.298 145.299 135.267 145.49 134.245L129.15 122.131C131.34 130.146 133.951 144.788 128.687 150.558Z" fill="#E4897B"/>
<path opacity="0.2" d="M132.968 129.852C133.614 139.678 141.644 142.318 145.602 142.865C145.072 141.072 144.905 139.192 145.111 137.334L132.968 129.852Z" fill="black"/>
<path d="M131.873 132.112C133.565 134.615 136.032 136.495 138.895 137.461C141.758 138.427 144.859 138.427 147.722 137.46C151.445 136.274 154.581 133.721 156.496 130.315C156.763 129.859 157.006 129.391 157.226 128.911C161.199 119.618 162.462 103.362 152.635 97.2692C150.475 95.9121 148.003 95.1301 145.455 94.9974C142.906 94.8647 140.367 95.3858 138.077 96.5111C135.787 97.6365 133.822 99.3287 132.37 101.427C130.919 103.525 130.027 105.96 129.781 108.5C128.574 119.323 127.353 125.682 131.873 132.112Z" fill="#E4897B"/>
<path d="M145.616 114.298C145.406 115.154 145.813 115.954 146.388 116.052C146.964 116.151 147.554 115.519 147.708 114.648C147.862 113.778 147.497 112.992 146.936 112.894C146.374 112.795 145.785 113.399 145.616 114.298Z" fill="#2E353A"/>
<path d="M155.541 115.982C155.331 116.838 155.738 117.652 156.313 117.751C156.889 117.849 157.464 117.203 157.619 116.347C157.773 115.491 157.422 114.676 156.847 114.578C156.271 114.48 155.682 115.112 155.541 115.982Z" fill="#2E353A"/>
<path d="M152.313 115.884C152.904 118.74 153.882 121.503 155.219 124.096C154.538 124.415 153.795 124.581 153.043 124.581C152.291 124.581 151.548 124.415 150.867 124.096L152.313 115.884Z" fill="#DE5753"/>
<path d="M143.09 110.549C143.18 110.58 143.278 110.586 143.372 110.566C143.466 110.547 143.552 110.502 143.623 110.437C144.09 109.976 144.658 109.631 145.282 109.429C145.906 109.227 146.568 109.173 147.217 109.272C147.283 109.288 147.352 109.292 147.42 109.282C147.487 109.272 147.552 109.248 147.611 109.213C147.67 109.178 147.721 109.132 147.762 109.077C147.802 109.022 147.832 108.959 147.848 108.893C147.865 108.826 147.868 108.757 147.858 108.69C147.848 108.622 147.825 108.557 147.79 108.498C147.755 108.44 147.708 108.389 147.653 108.348C147.598 108.307 147.536 108.278 147.469 108.261C146.654 108.114 145.816 108.165 145.024 108.41C144.233 108.654 143.512 109.084 142.921 109.665C142.825 109.762 142.771 109.893 142.771 110.03C142.771 110.167 142.825 110.298 142.921 110.395C142.967 110.456 143.024 110.509 143.09 110.549Z" fill="#2E353A"/>
<path d="M148.677 128.462C147.388 128.443 146.123 128.111 144.991 127.494C143.859 126.878 142.893 125.996 142.177 124.924C142.157 124.893 142.144 124.859 142.138 124.822C142.133 124.786 142.134 124.749 142.144 124.713C142.153 124.678 142.169 124.644 142.192 124.616C142.215 124.587 142.243 124.563 142.276 124.545C142.335 124.509 142.407 124.497 142.475 124.513C142.544 124.528 142.603 124.57 142.641 124.63C143.325 125.607 144.229 126.41 145.28 126.975C146.33 127.541 147.498 127.853 148.691 127.886C148.761 127.89 148.826 127.919 148.876 127.968C148.925 128.018 148.954 128.083 148.958 128.153C148.958 128.224 148.93 128.292 148.879 128.342C148.829 128.392 148.762 128.42 148.691 128.42L148.677 128.462Z" fill="#2E353A"/>
<path d="M160.384 113.287C160.473 113.342 160.575 113.372 160.679 113.371C160.746 113.353 160.808 113.322 160.863 113.28C160.918 113.238 160.963 113.185 160.997 113.125C161.031 113.065 161.053 112.998 161.061 112.93C161.069 112.861 161.063 112.792 161.044 112.725C160.83 111.923 160.426 111.185 159.866 110.572C159.307 109.958 158.608 109.489 157.829 109.202C157.764 109.18 157.695 109.173 157.626 109.179C157.558 109.185 157.491 109.205 157.431 109.238C157.37 109.271 157.317 109.316 157.275 109.37C157.232 109.424 157.201 109.486 157.184 109.553C157.164 109.618 157.158 109.687 157.165 109.755C157.172 109.823 157.193 109.888 157.225 109.948C157.258 110.008 157.302 110.061 157.355 110.104C157.408 110.147 157.469 110.179 157.535 110.198C158.14 110.441 158.681 110.821 159.115 111.308C159.548 111.795 159.863 112.377 160.033 113.006C160.065 113.077 160.114 113.14 160.175 113.189C160.236 113.238 160.308 113.271 160.384 113.287Z" fill="#2E353A"/>
<path d="M131.087 144.353L146.655 151.372L147.568 145.757L153.281 147.764C154.282 148.111 155.136 148.787 155.702 149.683C156.268 150.578 156.513 151.639 156.398 152.692L155.752 158.868L147.863 154.545L143.932 160.16L125.233 151.161L131.087 144.353Z" fill="#0D98A2"/>
<path d="M143.806 100.372C146.524 102.782 149.652 104.684 153.043 105.987L150.039 100.372C150.039 100.372 157.058 106.549 164.245 109.16C164.245 109.16 167.404 93.5353 148.972 87.3866C133.361 82.1926 130.554 92.6509 130.554 92.6509C120.727 89.6748 109.637 117.751 131.003 130.806C131.003 130.806 129.29 119.871 131.915 117.751C134.541 115.631 144.76 108.977 143.806 100.372Z" fill="#2E353A"/>
<path d="M123.535 116.516C124.32 119.157 126.116 121.382 128.532 122.706C131.747 124.433 134.147 121.738 133.923 118.298C133.698 115.224 131.803 110.535 128.308 110.269C124.812 110.002 122.65 113.259 123.535 116.516Z" fill="#E4897B"/>
<path d="M360.777 388.853V505.369H369.2V405.699H502.561V505.369H512.388V388.853H360.777Z" fill="#0D98A2"/>
<path opacity="0.3" d="M360.777 388.853V505.369H369.2V405.699H502.561V505.369H512.388V388.853H360.777Z" fill="black"/>
<path opacity="0.6" d="M360.777 388.853V505.369H369.2V405.699H502.561V505.369H512.388V388.853H360.777Z" fill="white"/>
<path d="M437.986 388.853V505.369H446.409V405.699H579.77V505.369H589.596V388.853H437.986Z" fill="#0D98A2"/>
<path opacity="0.6" d="M437.986 388.853V505.369H446.409V405.699H579.77V505.369H589.596V388.853H437.986Z" fill="white"/>
<path d="M491.499 327.647C489.618 324.559 486.53 327.254 486.53 327.254C486.965 321.316 481.518 317.273 481.518 317.273C481.518 317.273 487.849 317.273 488.734 311.223C489.618 305.172 486.53 307.994 483.624 307.952C480.718 307.91 477.686 316.375 481.518 321.148C485.351 325.921 484.326 334.063 475.482 341.882C473.365 343.859 471.778 346.335 470.863 349.083C471.537 341.896 471.916 331.76 469.796 325.008C466.203 313.511 473.053 310.423 475.033 304.681C477.012 298.939 469.796 294.068 469.796 294.068C469.796 294.068 476.577 290.98 473.264 287.442C469.951 283.905 463.1 284.382 463.1 289.015C463.1 293.647 467.747 295.402 467.747 295.402C467.747 295.402 473.053 300.919 473.053 303.825C473.053 306.731 467.747 312.879 467.747 312.879C467.747 312.879 470.175 307.587 465.318 307.362C460.461 307.138 458.903 313.539 460.896 316.417C462.89 319.295 466.203 316.852 466.203 316.852C466.406 320.204 466.913 323.531 467.719 326.791C468.21 328.447 467.985 334.933 467.564 341.671C466.641 339.238 465.165 337.051 463.255 335.284C454.425 327.465 453.428 319.323 457.218 314.55C461.009 309.777 458.019 301.312 455.113 301.354C452.207 301.396 449.118 298.546 450.003 304.625C450.887 310.703 457.218 310.675 457.218 310.675C457.218 310.675 451.772 314.718 452.207 320.656C452.207 320.656 449.118 317.961 447.237 321.049C443.882 326.58 451.659 330.006 452.965 327.282C452.965 327.282 469.445 338.948 465.473 355.737L466.399 357.141C466.273 358.545 466.203 359.317 466.203 359.317L467.494 358.77L468.898 360.931C468.848 363.371 468.975 365.81 469.277 368.231L473.208 362.405C469.235 345.56 485.715 333.95 485.715 333.95C487.119 336.603 494.854 333.178 491.499 327.647Z" fill="#0D98A2"/>
<path opacity="0.2" d="M491.499 327.647C489.618 324.559 486.53 327.254 486.53 327.254C486.965 321.316 481.518 317.273 481.518 317.273C481.518 317.273 487.849 317.273 488.734 311.223C489.618 305.172 486.53 307.994 483.624 307.952C480.718 307.91 477.686 316.375 481.518 321.148C485.351 325.921 484.326 334.063 475.482 341.882C473.365 343.859 471.778 346.335 470.863 349.083C471.537 341.896 471.916 331.76 469.796 325.008C466.203 313.511 473.053 310.423 475.033 304.681C477.012 298.939 469.796 294.068 469.796 294.068C469.796 294.068 476.577 290.98 473.264 287.442C469.951 283.905 463.1 284.382 463.1 289.015C463.1 293.647 467.747 295.402 467.747 295.402C467.747 295.402 473.053 300.919 473.053 303.825C473.053 306.731 467.747 312.879 467.747 312.879C467.747 312.879 470.175 307.587 465.318 307.362C460.461 307.138 458.903 313.539 460.896 316.417C462.89 319.295 466.203 316.852 466.203 316.852C466.406 320.204 466.913 323.531 467.719 326.791C468.21 328.447 467.985 334.933 467.564 341.671C466.641 339.238 465.165 337.051 463.255 335.284C454.425 327.465 453.428 319.323 457.218 314.55C461.009 309.777 458.019 301.312 455.113 301.354C452.207 301.396 449.118 298.546 450.003 304.625C450.887 310.703 457.218 310.675 457.218 310.675C457.218 310.675 451.772 314.718 452.207 320.656C452.207 320.656 449.118 317.961 447.237 321.049C443.882 326.58 451.659 330.006 452.965 327.282C452.965 327.282 469.445 338.948 465.473 355.737L466.399 357.141C466.273 358.545 466.203 359.317 466.203 359.317L467.494 358.77L468.898 360.931C468.848 363.371 468.975 365.81 469.277 368.231L473.208 362.405C469.235 345.56 485.715 333.95 485.715 333.95C487.119 336.603 494.854 333.178 491.499 327.647Z" fill="black"/>
<path d="M481.518 388.853L476.198 358.405L477.7 349.547H460.952L462.454 358.405L457.148 388.853H481.518Z" fill="#0D98A2"/>
<path opacity="0.2" d="M481.518 388.853L476.198 358.405L477.7 349.547H460.952L462.454 358.405L457.148 388.853H481.518Z" fill="white"/>
<path d="M446.311 360.314H420.523V388.853H446.311V360.314Z" fill="#0D98A2"/>
<path opacity="0.3" d="M446.311 360.314H420.523V388.853H446.311V360.314Z" fill="white"/>
<path d="M447.644 356.566H419.217V364.666H447.644V356.566Z" fill="#0D98A2"/>
<path opacity="0.1" d="M447.644 356.566H419.217V364.666H447.644V356.566Z" fill="white"/>
<path d="M166.533 493.941L166.968 503.431L180.248 504.385L192.433 505.242L193.752 493.899L179.349 493.913L166.533 493.941Z" fill="#E4897B"/>
<path d="M167.67 505.368C168.709 505.298 167.305 492.495 167.305 492.495C167.305 492.495 158.882 484.957 156.763 477.348C154.643 469.74 150.193 474.26 150.586 482.837C150.979 491.414 151.26 497.97 151.54 504.063C151.821 510.155 156.847 506.168 167.67 505.368Z" fill="#2E353A"/>
<path d="M165.887 491.33H165.649C165.649 491.33 165.649 491.33 165.649 491.232C165.213 490.39 163.052 486.164 164.062 484.831C164.227 484.629 164.452 484.484 164.703 484.416C164.955 484.348 165.222 484.36 165.466 484.452C165.653 484.494 165.829 484.575 165.984 484.688C166.138 484.802 166.268 484.946 166.364 485.111C166.77 485.988 166.925 486.96 166.814 487.919C167.319 486.838 167.965 485.897 168.639 485.827C169.074 485.827 169.453 486.052 169.748 486.627C169.892 486.876 169.979 487.154 170 487.441C170.022 487.728 169.979 488.016 169.874 488.284C169.228 490.053 166.308 491.246 166.154 491.316L165.887 491.33ZM168.582 487.119C168.007 487.119 167.08 488.761 166.449 490.698C167.574 490.167 168.506 489.299 169.116 488.214C169.183 488.072 169.21 487.916 169.195 487.76C169.18 487.604 169.124 487.456 169.032 487.329C168.985 487.255 168.917 487.196 168.838 487.159C168.758 487.122 168.67 487.108 168.582 487.119ZM164.89 485.041C164.819 485.032 164.747 485.042 164.681 485.069C164.615 485.096 164.556 485.14 164.511 485.196C164.048 485.827 164.862 488.143 165.747 489.997C166 488.593 166.224 486.333 165.663 485.42C165.609 485.335 165.54 485.262 165.458 485.204C165.376 485.146 165.283 485.105 165.185 485.083L164.89 485.041Z" fill="#0D98A2"/>
<path opacity="0.2" d="M179.055 493.927L179.982 504.399L192.307 505.256L193.683 493.899L179.055 493.927Z" fill="black"/>
<path d="M151.063 491.12L154.067 500.118L167.109 497.437L179.069 494.938L177.244 483.666L163.388 487.611L151.063 491.12Z" fill="#E4897B"/>
<path d="M155.288 501.859C156.271 501.508 151.428 489.561 151.428 489.561C151.428 489.561 141.307 484.592 137.165 477.868C133.024 471.144 129.992 476.689 132.701 484.887C135.411 493.085 137.488 499.262 139.411 505.059C141.335 510.857 145.069 505.523 155.288 501.859Z" fill="#2E353A"/>
<path d="M149.645 488.705C149.645 488.705 149.645 488.705 149.561 488.705C149.517 488.695 149.477 488.671 149.449 488.635C148.789 487.961 145.56 484.494 146.15 482.935C146.251 482.704 146.421 482.509 146.637 482.378C146.854 482.248 147.105 482.187 147.357 482.205C147.547 482.195 147.737 482.223 147.915 482.288C148.094 482.354 148.257 482.454 148.396 482.584C149.041 483.332 149.46 484.247 149.603 485.224C149.814 484.058 150.165 482.978 150.796 482.725C151.203 482.556 151.639 482.725 152.088 483.188C152.29 483.391 152.445 483.635 152.542 483.905C152.639 484.174 152.676 484.461 152.649 484.746C152.509 486.627 150.01 488.607 149.842 488.691H150.207V488.523H150.01C150.01 488.523 149.715 488.705 149.645 488.705ZM151.049 483.413C150.516 483.623 150.151 485.687 150.066 487.722C151.005 486.964 151.678 485.926 151.99 484.76C152.002 484.568 151.975 484.376 151.91 484.195C151.844 484.013 151.743 483.848 151.611 483.708C151.428 483.595 151.232 483.413 151.063 483.413H151.049ZM147.399 482.907C146.88 482.907 146.81 483.132 146.782 483.202C146.501 483.932 147.919 485.94 149.28 487.484C149.126 486.01 148.747 483.82 147.876 483.104C147.747 482.982 147.577 482.913 147.399 482.907Z" fill="#0D98A2"/>
<path opacity="0.2" d="M163.108 487.695L166.856 497.507L178.942 494.981L177.188 483.694L163.108 487.695Z" fill="black"/>
<path d="M361.296 505.523C328.489 505.523 291.878 485.659 275.664 479.819C273.556 478.9 271.305 478.354 269.01 478.205C261.893 478.542 209.251 490.713 184.389 496.538H184.277L171.446 499.571L167.235 484.438C167.235 484.438 262.047 435.178 275.145 437.789C285.084 439.783 313.048 447.223 326.019 450.69L332.701 452.487L341.124 437.986L387.449 441.538C387.449 441.538 400.083 505.523 361.296 505.523Z" fill="#2E353A"/>
<path d="M182.649 488.354L186.369 506.435L273.741 505.256C273.741 505.256 337.011 505.523 361.296 505.523C385.582 505.523 362.63 461.851 362.63 461.851L182.649 488.354Z" fill="#2E353A"/>
<path opacity="0.2" d="M341.123 437.986L340.028 468.041L275.72 479.833L184.473 496.552L281.686 464.265L332.504 466.272C332.186 460.491 329.909 454.99 326.047 450.676L332.729 452.473L341.123 437.986Z" fill="black"/>
<path d="M387.449 434.729V441.524L341.124 437.972V429.942L387.449 434.729Z" fill="#0D98A2"/>
<path opacity="0.4" d="M387.449 434.729V441.524L341.124 437.972V429.942L387.449 434.729Z" fill="black"/>
<path d="M371.533 443.606L373.832 443.723L374.429 432.017L372.13 431.899L371.533 443.606Z" fill="#2E353A"/>
<path d="M351.43 439.264L361.553 440.172L362.241 432.495L352.118 431.588L351.43 439.264Z" fill="#0D98A2"/>
<path d="M343.262 440.481L345.561 440.599L346.158 428.892L343.859 428.775L343.262 440.481Z" fill="#2E353A"/>
<path opacity="0.6" d="M351.43 439.264L361.553 440.172L362.241 432.495L352.118 431.588L351.43 439.264Z" fill="white"/>
<path d="M316.037 364.638C316.037 364.638 310.141 364.989 310.015 366.041C309.889 367.094 310.942 375.671 311.826 376.823C312.771 377.853 313.83 378.771 314.985 379.56L311.644 392.714L319.196 395.83L321.302 381.595C321.302 381.595 324.629 377.805 323.225 373.411C321.821 369.017 316.037 364.638 316.037 364.638Z" fill="#E4897B"/>
<path opacity="0.2" d="M316.037 364.638C316.037 364.638 310.141 364.989 310.015 366.041C309.889 367.094 310.942 375.671 311.826 376.823C312.771 377.853 313.83 378.771 314.985 379.56L311.644 392.714L319.196 395.83L321.302 381.595C321.302 381.595 324.629 377.805 323.225 373.411C321.821 369.017 316.037 364.638 316.037 364.638Z" fill="black"/>
<path d="M387.449 319.828C387.449 319.828 398.679 339.846 385.301 366.939" stroke="#2E353A" stroke-width="0.5" stroke-linecap="round" stroke-linejoin="round"/>
<path d="M351.624 377.623L347.721 397.557L346.556 398.82C342.766 402.863 330.511 415.455 320.361 420.172C315.925 422.235 311.938 422.783 309.131 420.439C298.925 411.665 311.938 381.595 311.938 381.595L323.576 386.045L322.635 398.581L335.27 370.604L351.624 377.623Z" fill="#0D98A2"/>
<path opacity="0.2" d="M346.556 398.82C342.766 402.863 330.511 415.455 320.361 420.172C335.957 411.314 340.014 391.899 340.014 391.899L346.556 398.82Z" fill="black"/>
<path d="M377.173 306.969C385.413 308.556 394.019 324.026 390.018 344.156C387.293 357.117 382.979 369.692 377.173 381.595L351.624 377.623C351.624 377.623 346.739 301.116 377.173 306.969Z" fill="#2E353A"/>
<path d="M341.194 430.756L387.519 434.757C388.614 417.533 389.723 406.429 399.915 375.727L401.459 371.123C401.634 370.606 401.702 370.06 401.659 369.516C401.617 368.972 401.464 368.443 401.211 367.96C400.957 367.477 400.609 367.05 400.186 366.706C399.762 366.362 399.274 366.107 398.749 365.957C393.763 364.54 388.701 363.401 383.588 362.546C376.714 361.326 369.762 360.595 362.784 360.356C353.758 360.286 343.412 361.296 343.412 361.296C343.412 361.296 342.008 361.647 341.011 371.207C340.155 380.177 339.327 398.118 341.194 430.756Z" fill="#0D98A2"/>
<path d="M372.106 360.341C379.947 361.385 387.712 362.937 395.352 364.988C395.352 364.988 366.701 380.037 333.838 373.65C333.838 373.65 337.965 361.872 343.412 361.254C352.677 360.243 364.988 359.597 372.106 360.341Z" fill="#E4897B"/>
<path d="M377.089 310.633C377.089 310.633 379.012 301.817 364.862 300.652C350.712 299.487 335.27 314.578 339.257 335.747C343.244 356.916 349.252 362.812 344.704 374.759C340.155 386.705 345.265 389.962 349.392 391.843C349.392 391.843 346.585 389.26 347.722 386.228C348.859 383.196 359.078 381.75 358.756 370.533C358.433 359.317 371.39 358.854 371.39 358.854L377.089 310.633Z" fill="#2E353A"/>
<path d="M381.455 364.244C381.455 364.244 378.015 369.199 366.602 370.603C366.602 370.603 360.987 366.883 363.346 362.363C363.346 362.363 365.816 361.591 366.35 357.66C366.601 354.888 366.241 352.095 365.297 349.476C365.171 349.055 365.016 348.606 364.862 348.156L379.293 339.13C379.293 339.13 374.211 357.408 381.455 364.244Z" fill="#E4897B"/>
<path opacity="0.2" d="M376.05 344.352C376.05 344.352 375.278 354.67 366.35 357.646C366.6 354.874 366.241 352.08 365.297 349.462C370.603 346.739 376.05 344.352 376.05 344.352Z" fill="black"/>
<path d="M361.296 310.549C349.504 312.556 346.781 319.519 347.988 331.83C349.504 347.202 354.712 357.422 368.905 351.652C388.193 343.833 380.879 307.208 361.296 310.549Z" fill="#E4897B"/>
<path d="M355.499 329.893C354.855 331.815 353.983 333.654 352.902 335.368C353.332 335.796 353.871 336.096 354.46 336.237C355.049 336.379 355.666 336.355 356.243 336.168L355.499 329.893Z" fill="#DE5753"/>
<path d="M362.56 327.661C362.7 328.644 363.346 329.346 363.963 329.261C364.581 329.177 365.016 328.293 364.876 327.324C364.736 326.356 364.09 325.64 363.472 325.738C362.854 325.836 362.419 326.692 362.56 327.661Z" fill="#2E353A"/>
<path d="M363.753 325.682L361.521 325.162C361.521 325.162 362.826 326.847 363.753 325.682Z" fill="#2E353A"/>
<path d="M350.431 329.233C350.585 330.216 351.217 330.918 351.835 330.834C352.452 330.749 352.902 329.865 352.761 328.896C352.621 327.928 351.975 327.212 351.357 327.31C350.74 327.408 350.29 328.265 350.431 329.233Z" fill="#2E353A"/>
<path d="M351.624 327.31L349.392 326.791C349.392 326.791 350.712 328.49 351.624 327.31Z" fill="#2E353A"/>
<path d="M361.282 319.505C362.195 319.232 363.158 319.172 364.098 319.33C365.037 319.489 365.928 319.861 366.701 320.418" stroke="#2E353A" stroke-width="0.72468" stroke-linecap="round" stroke-linejoin="round"/>
<path d="M352.635 320.474C351.792 320.407 350.946 320.532 350.158 320.838C349.371 321.144 348.663 321.624 348.086 322.243" stroke="#2E353A" stroke-width="0.72468" stroke-linecap="round" stroke-linejoin="round"/>
<path d="M358.755 340.492C359.521 341.729 360.197 343.019 360.777 344.353L361.521 344.156C364.89 343.216 366.153 341.671 366.518 340.239C366.695 339.539 366.695 338.806 366.518 338.106C366.431 337.705 366.289 337.317 366.097 336.955C364.278 338.463 362.15 339.555 359.864 340.155C359.205 340.38 358.755 340.492 358.755 340.492Z" fill="#2E353A"/>
<path d="M359.906 340.155L360.538 341.278C363.725 340.394 365.83 339.341 366.56 338.106C366.473 337.705 366.331 337.317 366.139 336.955C364.32 338.463 362.192 339.555 359.906 340.155Z" fill="white"/>
<path d="M361.577 344.156C364.946 343.215 366.21 341.671 366.575 340.239C365.3 340.621 364.103 341.225 363.037 342.022C362.344 342.567 361.834 343.312 361.577 344.156Z" fill="#DE5753"/>
<path d="M377.622 328.223C377.622 328.223 370.449 319.477 370.014 311.854C370.014 311.854 345.012 306.239 347.904 330.216C347.904 330.216 342.022 309.538 362.223 305.607C382.423 301.677 387.393 331.353 378.437 341.98C378.395 341.98 382.03 333.712 377.622 328.223Z" fill="#2E353A"/>
<path d="M376.078 331.044C375.961 329.661 376.396 328.287 377.287 327.222C378.179 326.157 379.455 325.487 380.837 325.359C384.571 325.134 387.59 332.378 378.802 335.705C377.538 336.182 376.584 335.031 376.078 331.044Z" fill="#E4897B"/>
<path d="M356.243 303.221C356.243 303.221 330.258 314.451 338.611 346.276C346.964 378.1 341.124 377.159 341.124 377.159" stroke="#2E353A" stroke-width="0.5" stroke-linecap="round" stroke-linejoin="round"/>
<path d="M328.349 373.523C328.369 373.687 328.354 373.853 328.304 374.01C328.255 374.168 328.172 374.312 328.061 374.435C327.951 374.557 327.815 374.655 327.664 374.72C327.512 374.786 327.349 374.818 327.184 374.815H314.353C314.004 374.801 313.671 374.663 313.414 374.427C313.157 374.19 312.992 373.87 312.949 373.523L310.072 348.255C310.044 347.915 310.15 347.578 310.368 347.316C310.586 347.053 310.898 346.886 311.237 346.851H324.067C324.422 346.902 324.75 347.066 325.003 347.319C325.256 347.572 325.42 347.901 325.471 348.255L328.349 373.523Z" fill="#2E353A"/>
<path opacity="0.5" d="M324.054 348.03L326.96 373.608C326.998 373.757 327 373.913 326.966 374.063C326.932 374.213 326.863 374.353 326.764 374.471C326.665 374.589 326.54 374.682 326.398 374.741C326.256 374.801 326.102 374.826 325.949 374.815H315.069C314.339 374.815 313.006 374.408 312.922 373.692L310.016 348.03C309.931 347.314 311.181 346.739 311.911 346.739H322.79C323.126 346.753 323.443 346.895 323.678 347.135C323.912 347.374 324.047 347.695 324.054 348.03Z" fill="white"/>
<path d="M340.071 384.473L333.459 377.159C333.459 377.159 331.297 365.339 330.651 364.118C330.006 362.896 320.305 364.118 319.253 364.118C318.2 364.118 319.253 375.994 320.418 377.159C321.583 378.324 325.57 379.026 325.57 379.026L333.515 390.088L340.071 384.473Z" fill="#E4897B"/>
<path d="M401.403 368.596C408.506 389.204 377.973 424.44 363.233 424.748C348.493 425.057 327.436 385.723 327.436 385.723L337.081 379.757C337.081 379.757 361.577 402.217 364.862 402.568C366.715 402.765 384.515 374.563 393.949 368.442C399.213 364.989 401.403 368.596 401.403 368.596Z" fill="#0D98A2"/>
<path opacity="0.1" d="M401.403 368.596C408.506 389.204 377.973 424.44 363.233 424.748C348.493 425.057 327.436 385.723 327.436 385.723L337.081 379.757C337.081 379.757 361.577 402.217 364.862 402.568C366.715 402.765 384.515 374.563 393.949 368.442C399.213 364.989 401.403 368.596 401.403 368.596Z" fill="black"/>
<path d="M407.65 472.73H377.636V508.302H407.65V472.73Z" fill="#0D98A2"/>
<path opacity="0.2" d="M407.65 472.73H377.636V508.302H407.65V472.73Z" fill="white"/>
<path d="M408.955 468.982H376.317V477.082H408.955V468.982Z" fill="#0D98A2"/>
</svg>
