<svg width="579" height="433" viewBox="0 0 579 433" fill="none" xmlns="http://www.w3.org/2000/svg">
<path d="M579 379.819H0V380.109H579V379.819Z" fill="#EBEBEB"/>
<path d="M520.984 398.451H482.631V398.741H520.984V398.451Z" fill="#EBEBEB"/>
<path d="M383.553 401.601H373.49V401.891H383.553V401.601Z" fill="#EBEBEB"/>
<path d="M481.473 387.705H459.251V387.995H481.473V387.705Z" fill="#EBEBEB"/>
<path d="M110.763 389.651H60.7487V389.94H110.763V389.651Z" fill="#EBEBEB"/>
<path d="M128.411 389.651H121.08V389.94H128.411V389.651Z" fill="#EBEBEB"/>
<path d="M260.724 394.537H152.242V394.827H260.724V394.537Z" fill="#EBEBEB"/>
<path d="M274.446 328.172H50.8477C49.096 328.169 47.4172 327.471 46.1796 326.232C44.9421 324.992 44.2471 323.312 44.2471 321.56V7.24422C44.2623 5.50262 44.9641 3.83736 46.2 2.61016C47.4358 1.38296 49.106 0.692925 50.8477 0.689941H274.446C276.2 0.689941 277.881 1.38658 279.121 2.6266C280.361 3.86663 281.058 5.54846 281.058 7.30212V321.56C281.058 323.314 280.361 324.996 279.121 326.236C277.881 327.476 276.2 328.172 274.446 328.172ZM50.8477 0.921542C49.1728 0.92461 47.5676 1.5921 46.3843 2.7775C45.2011 3.9629 44.5366 5.56935 44.5366 7.24422V321.56C44.5366 323.235 45.2011 324.841 46.3843 326.027C47.5676 327.212 49.1728 327.88 50.8477 327.883H274.446C276.122 327.88 277.728 327.213 278.913 326.028C280.098 324.842 280.766 323.236 280.769 321.56V7.24422C280.766 5.56828 280.098 3.96186 278.913 2.77679C277.728 1.59172 276.122 0.924603 274.446 0.921542H50.8477Z" fill="#EBEBEB"/>
<path d="M524.933 328.172H301.323C299.57 328.169 297.89 327.472 296.651 326.232C295.412 324.993 294.714 323.313 294.711 321.56V7.24422C294.729 5.50156 295.434 3.83632 296.671 2.60943C297.909 1.38255 299.58 0.692892 301.323 0.689941H524.933C526.673 0.695968 528.34 1.38735 529.573 2.61422C530.807 3.8411 531.507 5.50462 531.522 7.24422V321.56C531.522 323.31 530.828 324.988 529.593 326.228C528.358 327.467 526.683 328.166 524.933 328.172ZM301.323 0.921542C299.647 0.924603 298.041 1.59172 296.856 2.77679C295.671 3.96186 295.003 5.56828 295 7.24422V321.56C295.003 323.236 295.671 324.842 296.856 326.028C298.041 327.213 299.647 327.88 301.323 327.883H524.933C526.609 327.88 528.215 327.213 529.4 326.028C530.585 324.842 531.253 323.236 531.256 321.56V7.24422C531.253 5.56828 530.585 3.96186 529.4 2.77679C528.215 1.59172 526.609 0.924603 524.933 0.921542H301.323Z" fill="#EBEBEB"/>
<path d="M274.446 146.725V167.06L284.868 168.044C286.266 174.745 288.918 181.122 292.685 186.838L285.957 194.944L300.339 209.327L308.445 202.599C314.158 206.361 320.531 209.009 327.228 210.404L328.212 220.826H348.674L349.658 210.404C356.359 209.009 362.735 206.361 368.452 202.599L376.558 209.327L390.941 194.944L384.213 186.838C387.975 181.121 390.624 174.745 392.018 168.044L402.498 167.06V146.725L392.018 145.729C390.633 139.023 387.992 132.638 384.236 126.912L390.964 118.806L376.582 104.435L368.476 111.163C362.767 107.406 356.404 104.754 349.716 103.347L348.732 92.9246H328.328L327.343 103.347C320.647 104.75 314.275 107.402 308.561 111.163L300.455 104.435L286.026 118.806L292.754 126.912C288.991 132.626 286.339 138.998 284.938 145.695L274.446 146.725ZM338.46 129.355C343.907 129.355 349.231 130.97 353.759 133.996C358.288 137.022 361.817 141.323 363.901 146.354C365.986 151.386 366.531 156.923 365.468 162.265C364.406 167.606 361.783 172.513 357.932 176.364C354.081 180.215 349.174 182.838 343.833 183.901C338.491 184.963 332.954 184.418 327.922 182.334C322.89 180.249 318.59 176.72 315.564 172.191C312.538 167.663 310.923 162.339 310.923 156.892C310.923 153.272 311.637 149.688 313.024 146.344C314.41 143 316.443 139.962 319.005 137.404C321.567 134.847 324.608 132.819 327.954 131.438C331.301 130.057 334.886 129.349 338.507 129.355H338.46Z" fill="#F0F0F0"/>
<path d="M240.123 237.744L245.913 242.585L256.254 232.244L251.413 226.454C254.143 222.337 256.065 217.74 257.076 212.905L264.603 212.199V197.55L257.076 196.844C256.074 192.028 254.168 187.447 251.46 183.341L256.3 177.551L245.959 167.21L240.169 172.051C236.061 169.347 231.481 167.442 226.667 166.434L225.961 158.907H211.3L210.594 166.434C205.779 167.449 201.198 169.362 197.092 172.074L191.302 167.233L180.961 177.574L185.801 183.364C183.093 187.47 181.187 192.052 180.185 196.867L172.658 197.573V212.187L180.185 212.893C181.187 217.709 183.093 222.29 185.801 226.396L180.961 232.186L191.302 242.527L197.092 237.686C201.2 240.39 205.78 242.295 210.594 243.303L211.3 250.83H225.914L226.621 243.303C231.43 242.313 236.011 240.427 240.123 237.744ZM198.829 204.892C198.829 200.977 199.99 197.15 202.165 193.896C204.34 190.641 207.431 188.104 211.048 186.607C214.665 185.109 218.645 184.718 222.484 185.483C226.323 186.247 229.849 188.133 232.617 190.902C235.384 193.671 237.268 197.198 238.03 201.038C238.793 204.878 238.399 208.857 236.899 212.473C235.4 216.089 232.861 219.179 229.605 221.352C226.349 223.525 222.522 224.684 218.607 224.682C216.009 224.682 213.436 224.17 211.036 223.175C208.635 222.181 206.454 220.723 204.618 218.885C202.781 217.047 201.324 214.865 200.331 212.464C199.338 210.063 198.827 207.49 198.829 204.892Z" fill="#F5F5F5"/>
<path d="M305.075 336.741C310.807 335.55 316.261 333.283 321.148 330.06L328.096 335.85L340.452 323.517L334.662 316.569C337.885 311.682 340.152 306.228 341.344 300.496L350.307 299.662V282.292L341.344 281.447C340.158 275.699 337.89 270.229 334.662 265.328L340.452 258.38L328.108 246.07L321.16 251.86C316.27 248.643 310.817 246.376 305.087 245.178L304.241 236.227H286.871L286.026 245.144C280.296 246.341 274.843 248.608 269.953 251.825L263.005 246.035L250.695 258.345L256.485 265.293C253.268 270.183 251.001 275.636 249.804 281.366L240.841 282.211V299.581L249.804 300.415C250.999 306.146 253.266 311.599 256.485 316.488L250.695 323.436L263.005 335.734L269.953 329.944C274.832 333.208 280.286 335.514 286.026 336.741L286.871 345.704H304.241L305.075 336.741ZM271.979 290.943C271.982 286.285 273.365 281.732 275.955 277.86C278.544 273.988 282.224 270.971 286.528 269.19C290.832 267.409 295.567 266.944 300.135 267.854C304.704 268.765 308.899 271.009 312.192 274.303C315.485 277.598 317.727 281.795 318.635 286.363C319.543 290.932 319.076 295.667 317.293 299.97C315.51 304.274 312.491 307.952 308.618 310.539C304.745 313.127 300.191 314.508 295.533 314.508C292.439 314.508 289.375 313.898 286.517 312.714C283.658 311.529 281.061 309.793 278.874 307.605C276.687 305.417 274.952 302.819 273.769 299.96C272.586 297.101 271.978 294.037 271.979 290.943Z" fill="#FAFAFA"/>
<path d="M163.814 126.181L110.543 118.902L103.265 172.173L156.536 179.452L163.814 126.181Z" fill="#F5F5F5"/>
<path d="M118.379 133.509L117.909 136.951L152.593 141.69L153.063 138.248L118.379 133.509Z" fill="#E0E0E0"/>
<path d="M116.898 144.315L116.427 147.757L151.112 152.495L151.582 149.053L116.898 144.315Z" fill="#E0E0E0"/>
<path d="M115.381 155.483L114.911 158.925L135.334 161.715L135.804 158.273L115.381 155.483Z" fill="#E0E0E0"/>
<path d="M462.065 67.0042L408.299 67.1919L408.487 120.958L462.252 120.77L462.065 67.0042Z" fill="#F0F0F0"/>
<path d="M453.127 80.3661L418.121 80.4944L418.134 83.9684L453.14 83.8401L453.127 80.3661Z" fill="#E0E0E0"/>
<path d="M453.179 91.2743L418.172 91.4026L418.185 94.8766L453.191 94.7483L453.179 91.2743Z" fill="#E0E0E0"/>
<path d="M438.815 102.606L418.202 102.681L418.215 106.155L438.827 106.08L438.815 102.606Z" fill="#E0E0E0"/>
<path d="M494.331 198.128L440.991 204.885L447.748 258.225L501.088 251.468L494.331 198.128Z" fill="#F5F5F5"/>
<path d="M487.109 212.538L452.38 216.938L452.816 220.384L487.545 215.985L487.109 212.538Z" fill="#E0E0E0"/>
<path d="M488.48 223.351L453.751 227.751L454.188 231.197L488.917 226.798L488.48 223.351Z" fill="#E0E0E0"/>
<path d="M475.615 236.344L455.167 238.935L455.603 242.381L476.052 239.79L475.615 236.344Z" fill="#E0E0E0"/>
<path d="M208.333 284.701L154.567 284.888L154.755 338.654L208.52 338.466L208.333 284.701Z" fill="#F0F0F0"/>
<path d="M199.456 298.107L164.45 298.235L164.463 301.709L199.469 301.581L199.456 298.107Z" fill="#E0E0E0"/>
<path d="M199.496 309.015L164.49 309.143L164.503 312.617L199.509 312.489L199.496 309.015Z" fill="#E0E0E0"/>
<path d="M185.144 320.346L164.531 320.422L164.544 323.896L185.156 323.82L185.144 320.346Z" fill="#E0E0E0"/>
<path d="M445.801 311.027L392.036 311.214L392.223 364.98L445.989 364.792L445.801 311.027Z" fill="#F0F0F0"/>
<path d="M436.918 324.391L401.912 324.52L401.925 327.994L436.931 327.865L436.918 324.391Z" fill="#E0E0E0"/>
<path d="M436.97 335.299L401.963 335.428L401.976 338.902L436.982 338.773L436.97 335.299Z" fill="#E0E0E0"/>
<path d="M422.605 346.631L401.993 346.707L402.006 350.18L422.618 350.105L422.605 346.631Z" fill="#E0E0E0"/>
<path d="M219.239 63.4921L166.751 75.1475L178.407 127.635L230.894 115.979L219.239 63.4921Z" fill="#F0F0F0"/>
<path d="M213.361 78.5368L179.187 86.1255L179.94 89.5169L214.114 81.9282L213.361 78.5368Z" fill="#E0E0E0"/>
<path d="M215.73 89.1891L181.556 96.7778L182.309 100.169L216.483 92.5805L215.73 89.1891Z" fill="#E0E0E0"/>
<path d="M204.12 103.313L183.998 107.781L184.751 111.173L204.873 106.704L204.12 103.313Z" fill="#E0E0E0"/>
<path d="M114.92 124.712H113.959L112.627 118.574H116.24L114.92 124.712Z" fill="#E0E0E0"/>
<path d="M114.434 123.195C117.132 123.195 119.32 121.468 119.32 119.339C119.32 117.209 117.132 115.482 114.434 115.482C111.735 115.482 109.547 117.209 109.547 119.339C109.547 121.468 111.735 123.195 114.434 123.195Z" fill="#E6E6E6"/>
<path d="M213.153 71.1312H212.192L210.872 65.0054H214.485L213.153 71.1312Z" fill="#E0E0E0"/>
<path d="M212.678 69.6256C215.384 69.6256 217.577 67.8991 217.577 65.7695C217.577 63.6398 215.384 61.9133 212.678 61.9133C209.973 61.9133 207.78 63.6398 207.78 65.7695C207.78 67.8991 209.973 69.6256 212.678 69.6256Z" fill="#E6E6E6"/>
<path d="M434.412 72.6712H433.451L432.119 66.5454H435.732L434.412 72.6712Z" fill="#E0E0E0"/>
<path d="M433.926 71.1659C436.625 71.1659 438.813 69.4394 438.813 67.3098C438.813 65.1801 436.625 63.4536 433.926 63.4536C431.227 63.4536 429.039 65.1801 429.039 67.3098C429.039 69.4394 431.227 71.1659 433.926 71.1659Z" fill="#E6E6E6"/>
<path d="M489.371 205.83H488.41L487.09 199.704H490.703L489.371 205.83Z" fill="#E0E0E0"/>
<path d="M488.896 204.324C491.595 204.324 493.783 202.598 493.783 200.468C493.783 198.339 491.595 196.612 488.896 196.612C486.197 196.612 484.009 198.339 484.009 200.468C484.009 202.598 486.197 204.324 488.896 204.324Z" fill="#E6E6E6"/>
<path d="M419.879 317.137H418.907L417.586 310.999H421.199L419.879 317.137Z" fill="#E0E0E0"/>
<path d="M419.393 315.62C422.092 315.62 424.28 313.893 424.28 311.763C424.28 309.634 422.092 307.907 419.393 307.907C416.694 307.907 414.506 309.634 414.506 311.763C414.506 313.893 416.694 315.62 419.393 315.62Z" fill="#E6E6E6"/>
<path d="M180.046 289.576H179.085L177.765 283.439H181.378L180.046 289.576Z" fill="#E0E0E0"/>
<path d="M179.571 288.059C182.27 288.059 184.458 286.333 184.458 284.203C184.458 282.073 182.27 280.347 179.571 280.347C176.872 280.347 174.684 282.073 174.684 284.203C174.684 286.333 176.872 288.059 179.571 288.059Z" fill="#E6E6E6"/>
<path d="M289.5 432.115C413.501 432.115 514.025 426.246 514.025 419.006C514.025 411.766 413.501 405.897 289.5 405.897C165.498 405.897 64.9753 411.766 64.9753 419.006C64.9753 426.246 165.498 432.115 289.5 432.115Z" fill="#F5F5F5"/>
<path d="M166.37 225.157C166.37 217.526 171.384 211.261 177.556 211.261C183.728 211.261 188.742 217.468 188.742 225.157C188.742 232.846 183.728 238.983 177.556 238.983C171.384 238.983 166.37 232.788 166.37 225.157ZM168.686 225.157C168.686 231.503 172.669 236.667 177.556 236.667C182.443 236.667 186.426 231.503 186.426 225.157C186.426 218.811 182.455 213.577 177.556 213.577C172.658 213.577 168.686 218.811 168.686 225.157Z" fill="#263238"/>
<path d="M144.356 225.157C144.356 217.526 149.37 211.261 155.543 211.261C161.715 211.261 166.729 217.468 166.729 225.157C166.729 232.846 161.715 238.983 155.543 238.983C149.37 238.983 144.356 232.788 144.356 225.157ZM146.672 225.157C146.672 231.503 150.644 236.667 155.543 236.667C160.441 236.667 164.413 231.503 164.413 225.157C164.413 218.811 160.429 213.577 155.543 213.577C150.656 213.577 146.672 218.811 146.672 225.157Z" fill="#263238"/>
<path d="M122.331 225.157C122.331 217.526 127.357 211.261 133.529 211.261C139.701 211.261 144.715 217.468 144.715 225.157C144.715 232.846 139.689 238.983 133.529 238.983C127.368 238.983 122.331 232.788 122.331 225.157ZM124.647 225.157C124.647 231.503 128.631 236.667 133.529 236.667C138.427 236.667 142.399 231.503 142.399 225.157C142.399 218.811 138.416 213.577 133.529 213.577C128.642 213.577 124.647 218.811 124.647 225.157Z" fill="#263238"/>
<path d="M100.318 225.157C100.318 217.526 105.343 211.261 111.515 211.261C117.688 211.261 122.702 217.468 122.702 225.157C122.702 232.846 117.676 238.983 111.515 238.983C105.355 238.983 100.318 232.788 100.318 225.157ZM102.634 225.157C102.634 231.503 106.617 236.667 111.515 236.667C116.414 236.667 120.386 231.503 120.386 225.157C120.386 218.811 116.402 213.577 111.515 213.577C106.629 213.577 102.634 218.811 102.634 225.157Z" fill="#263238"/>
<path d="M188.384 225.157C188.384 217.526 193.398 211.261 199.57 211.261C205.742 211.261 210.768 217.468 210.768 225.157C210.768 232.846 205.742 238.983 199.57 238.983C193.398 238.983 188.384 232.788 188.384 225.157ZM190.7 225.157C190.7 231.503 194.683 236.667 199.57 236.667C204.457 236.667 208.452 231.503 208.452 225.157C208.452 218.811 204.468 213.577 199.57 213.577C194.671 213.577 190.7 218.811 190.7 225.157Z" fill="#263238"/>
<path d="M85.7614 416.169H223.656L223.656 225.423L85.7614 225.423L85.7614 416.169Z" fill="#263238"/>
<path opacity="0.7" d="M85.7614 416.169H223.656L223.656 225.423L85.7614 225.423L85.7614 416.169Z" fill="white"/>
<path opacity="0.6" d="M98.1867 416.169H223.656L223.656 225.423L98.1867 225.423L98.1867 416.169Z" fill="white"/>
<path opacity="0.2" d="M89.8956 416.169L89.3166 237.906L88.7375 416.169H89.8956Z" fill="black"/>
<path opacity="0.2" d="M95.6624 416.169L95.0834 249.011L94.5044 416.169H95.6624Z" fill="black"/>
<path opacity="0.2" d="M91.6208 225.562L92.1999 359.577L92.7789 225.562H91.6208Z" fill="black"/>
<path d="M202.905 234.49C203.023 235.108 203.315 235.678 203.747 236.136C204.178 236.594 204.73 236.919 205.339 237.074C205.949 237.229 206.589 237.208 207.187 237.013C207.784 236.817 208.314 236.456 208.714 235.97C209.113 235.485 209.366 234.896 209.444 234.272C209.521 233.648 209.419 233.015 209.15 232.447C208.881 231.879 208.456 231.399 207.924 231.064C207.392 230.728 206.776 230.551 206.147 230.553C205.198 230.653 204.326 231.121 203.72 231.858C203.113 232.594 202.82 233.54 202.905 234.49Z" fill="#263238"/>
<path d="M206.356 235.66C206.521 235.658 206.684 235.621 206.834 235.551C206.984 235.481 207.117 235.38 207.224 235.255C209.557 232.411 210.812 228.835 210.768 225.157C210.768 217.526 205.742 211.261 199.57 211.261C195.03 211.261 190.966 214.619 189.229 219.795C189.18 219.94 189.16 220.092 189.171 220.244C189.181 220.396 189.221 220.545 189.289 220.682C189.357 220.818 189.451 220.94 189.566 221.04C189.68 221.141 189.814 221.217 189.958 221.266C190.103 221.315 190.255 221.334 190.408 221.324C190.56 221.314 190.708 221.273 190.845 221.206C190.981 221.138 191.103 221.044 191.203 220.929C191.304 220.814 191.38 220.681 191.429 220.536C192.842 216.31 196.061 213.588 199.535 213.588C204.433 213.588 208.417 218.765 208.417 225.168C208.466 228.29 207.412 231.328 205.441 233.749C205.293 233.917 205.197 234.124 205.165 234.345C205.133 234.566 205.165 234.792 205.258 234.995C205.351 235.199 205.501 235.371 205.689 235.491C205.878 235.611 206.097 235.673 206.321 235.671L206.356 235.66Z" fill="#263238"/>
<g opacity="0.4">
<path opacity="0.4" d="M206.356 235.66C206.521 235.658 206.684 235.621 206.834 235.551C206.984 235.481 207.117 235.38 207.224 235.255C209.557 232.411 210.812 228.835 210.768 225.157C210.768 217.526 205.742 211.261 199.57 211.261C195.03 211.261 190.966 214.619 189.229 219.795C189.18 219.94 189.16 220.092 189.171 220.244C189.181 220.396 189.221 220.545 189.289 220.682C189.357 220.818 189.451 220.94 189.566 221.04C189.68 221.141 189.814 221.217 189.958 221.266C190.103 221.315 190.255 221.334 190.408 221.324C190.56 221.314 190.708 221.273 190.845 221.206C190.981 221.138 191.103 221.044 191.203 220.929C191.304 220.814 191.38 220.681 191.429 220.536C192.842 216.31 196.061 213.588 199.535 213.588C204.433 213.588 208.417 218.765 208.417 225.168C208.466 228.29 207.412 231.328 205.441 233.749C205.293 233.917 205.197 234.124 205.165 234.345C205.133 234.566 205.165 234.792 205.258 234.995C205.351 235.199 205.501 235.371 205.689 235.491C205.878 235.611 206.097 235.673 206.321 235.671L206.356 235.66Z" fill="white"/>
</g>
<path d="M180.891 234.49C181.012 235.104 181.304 235.67 181.735 236.124C182.165 236.578 182.715 236.9 183.321 237.053C183.928 237.206 184.565 237.184 185.159 236.989C185.753 236.794 186.279 236.434 186.677 235.951C187.075 235.469 187.327 234.883 187.404 234.262C187.482 233.642 187.381 233.012 187.115 232.447C186.848 231.881 186.427 231.403 185.899 231.067C185.371 230.732 184.759 230.554 184.134 230.553C183.185 230.653 182.313 231.121 181.706 231.858C181.1 232.594 180.807 233.54 180.891 234.49Z" fill="#263238"/>
<path d="M184.33 235.66C184.498 235.66 184.663 235.624 184.815 235.554C184.967 235.484 185.102 235.382 185.21 235.255C187.54 232.41 188.791 228.834 188.742 225.157C188.742 217.526 183.728 211.261 177.556 211.261C173.005 211.261 168.952 214.619 167.215 219.795C167.117 220.087 167.139 220.406 167.275 220.682C167.412 220.957 167.653 221.168 167.945 221.266C168.236 221.364 168.555 221.342 168.831 221.206C169.107 221.069 169.317 220.828 169.415 220.536C170.828 216.31 174.047 213.588 177.521 213.588C182.42 213.588 186.392 218.765 186.392 225.168C186.445 228.288 185.395 231.327 183.427 233.749C183.28 233.916 183.185 234.122 183.152 234.342C183.119 234.562 183.15 234.787 183.242 234.99C183.333 235.193 183.482 235.365 183.668 235.486C183.855 235.607 184.073 235.671 184.296 235.671L184.33 235.66Z" fill="#263238"/>
<g opacity="0.4">
<path opacity="0.4" d="M184.33 235.66C184.498 235.66 184.663 235.624 184.815 235.554C184.967 235.484 185.102 235.382 185.21 235.255C187.54 232.41 188.791 228.834 188.742 225.157C188.742 217.526 183.728 211.261 177.556 211.261C173.005 211.261 168.952 214.619 167.215 219.795C167.117 220.087 167.139 220.406 167.275 220.682C167.412 220.957 167.653 221.168 167.945 221.266C168.236 221.364 168.555 221.342 168.831 221.206C169.107 221.069 169.317 220.828 169.415 220.536C170.828 216.31 174.047 213.588 177.521 213.588C182.42 213.588 186.392 218.765 186.392 225.168C186.445 228.288 185.395 231.327 183.427 233.749C183.28 233.916 183.185 234.122 183.152 234.342C183.119 234.562 183.15 234.787 183.242 234.99C183.333 235.193 183.482 235.365 183.668 235.486C183.855 235.607 184.073 235.671 184.296 235.671L184.33 235.66Z" fill="white"/>
</g>
<path d="M158.866 234.49C158.985 235.107 159.276 235.678 159.707 236.135C160.137 236.592 160.689 236.918 161.298 237.074C161.906 237.229 162.547 237.208 163.144 237.014C163.741 236.819 164.271 236.459 164.671 235.975C165.071 235.491 165.326 234.902 165.404 234.279C165.483 233.656 165.383 233.023 165.115 232.455C164.848 231.886 164.424 231.406 163.894 231.069C163.363 230.732 162.748 230.553 162.12 230.553C161.17 230.653 160.297 231.121 159.689 231.857C159.08 232.593 158.785 233.539 158.866 234.49Z" fill="#263238"/>
<path d="M162.317 235.66C162.484 235.66 162.649 235.624 162.801 235.554C162.953 235.484 163.088 235.382 163.197 235.255C165.506 232.402 166.736 228.826 166.671 225.157C166.671 217.526 161.657 211.261 155.485 211.261C150.934 211.261 146.881 214.619 145.144 219.795C145.095 219.94 145.075 220.092 145.085 220.245C145.095 220.397 145.135 220.546 145.203 220.682C145.271 220.819 145.365 220.941 145.48 221.041C145.595 221.141 145.729 221.218 145.873 221.266C146.018 221.315 146.17 221.335 146.323 221.325C146.475 221.315 146.623 221.275 146.76 221.207C146.897 221.139 147.019 221.045 147.119 220.93C147.219 220.815 147.296 220.681 147.344 220.536C148.757 216.31 151.976 213.588 155.45 213.588C160.337 213.588 164.32 218.765 164.32 225.168C164.375 228.291 163.321 231.331 161.344 233.749C161.197 233.917 161.101 234.124 161.068 234.345C161.036 234.566 161.068 234.792 161.161 234.995C161.254 235.199 161.404 235.371 161.593 235.491C161.781 235.611 162.001 235.673 162.224 235.671L162.317 235.66Z" fill="#263238"/>
<g opacity="0.4">
<path opacity="0.4" d="M162.317 235.66C162.484 235.66 162.649 235.624 162.801 235.554C162.953 235.484 163.088 235.382 163.197 235.255C165.506 232.402 166.736 228.826 166.671 225.157C166.671 217.526 161.657 211.261 155.485 211.261C150.934 211.261 146.881 214.619 145.144 219.795C145.095 219.94 145.075 220.092 145.085 220.245C145.095 220.397 145.135 220.546 145.203 220.682C145.271 220.819 145.365 220.941 145.48 221.041C145.595 221.141 145.729 221.218 145.873 221.266C146.018 221.315 146.17 221.335 146.323 221.325C146.475 221.315 146.623 221.275 146.76 221.207C146.897 221.139 147.019 221.045 147.119 220.93C147.219 220.815 147.296 220.681 147.344 220.536C148.757 216.31 151.976 213.588 155.45 213.588C160.337 213.588 164.32 218.765 164.32 225.168C164.375 228.291 163.321 231.331 161.344 233.749C161.197 233.917 161.101 234.124 161.068 234.345C161.036 234.566 161.068 234.792 161.161 234.995C161.254 235.199 161.404 235.371 161.593 235.491C161.781 235.611 162.001 235.673 162.224 235.671L162.317 235.66Z" fill="white"/>
</g>
<path d="M136.852 234.49C136.971 235.107 137.263 235.678 137.693 236.135C138.124 236.592 138.676 236.918 139.284 237.074C139.893 237.229 140.533 237.208 141.13 237.014C141.728 236.819 142.257 236.459 142.658 235.975C143.058 235.491 143.312 234.902 143.391 234.279C143.469 233.656 143.369 233.023 143.101 232.455C142.834 231.886 142.41 231.406 141.88 231.069C141.35 230.732 140.735 230.553 140.106 230.553C139.157 230.653 138.284 231.121 137.675 231.857C137.067 232.593 136.771 233.539 136.852 234.49Z" fill="#263238"/>
<path d="M140.303 235.66C140.47 235.66 140.636 235.624 140.788 235.554C140.94 235.484 141.075 235.382 141.183 235.255C143.492 232.402 144.722 228.826 144.657 225.157C144.657 217.526 139.632 211.261 133.471 211.261C128.92 211.261 124.867 214.619 123.13 219.795C123.069 219.942 123.039 220.099 123.041 220.258C123.044 220.416 123.079 220.573 123.144 220.717C123.21 220.862 123.304 220.992 123.422 221.098C123.539 221.205 123.678 221.286 123.828 221.337C123.978 221.388 124.137 221.407 124.295 221.394C124.454 221.381 124.607 221.335 124.747 221.26C124.887 221.185 125.01 221.082 125.108 220.958C125.206 220.833 125.278 220.69 125.319 220.536C126.731 216.31 129.951 213.588 133.425 213.588C138.311 213.588 142.295 218.765 142.295 225.168C142.344 228.29 141.29 231.328 139.319 233.749C139.171 233.917 139.076 234.124 139.043 234.345C139.011 234.566 139.043 234.792 139.136 234.995C139.229 235.199 139.379 235.371 139.568 235.491C139.756 235.611 139.975 235.673 140.199 235.671L140.303 235.66Z" fill="#263238"/>
<g opacity="0.4">
<path opacity="0.4" d="M140.303 235.66C140.47 235.66 140.636 235.624 140.788 235.554C140.94 235.484 141.075 235.382 141.183 235.255C143.492 232.402 144.722 228.826 144.657 225.157C144.657 217.526 139.632 211.261 133.471 211.261C128.92 211.261 124.867 214.619 123.13 219.795C123.069 219.942 123.039 220.099 123.041 220.258C123.044 220.416 123.079 220.573 123.144 220.717C123.21 220.862 123.304 220.992 123.422 221.098C123.539 221.205 123.678 221.286 123.828 221.337C123.978 221.388 124.137 221.407 124.295 221.394C124.454 221.381 124.607 221.335 124.747 221.26C124.887 221.185 125.01 221.082 125.108 220.958C125.206 220.833 125.278 220.69 125.319 220.536C126.731 216.31 129.951 213.588 133.425 213.588C138.311 213.588 142.295 218.765 142.295 225.168C142.344 228.29 141.29 231.328 139.319 233.749C139.171 233.917 139.076 234.124 139.043 234.345C139.011 234.566 139.043 234.792 139.136 234.995C139.229 235.199 139.379 235.371 139.568 235.491C139.756 235.611 139.975 235.673 140.199 235.671L140.303 235.66Z" fill="white"/>
</g>
<path d="M114.839 234.49C114.839 236.667 116.298 238.427 118.081 238.427C118.999 238.254 119.827 237.766 120.423 237.047C121.019 236.328 121.345 235.424 121.345 234.49C121.345 233.556 121.019 232.652 120.423 231.933C119.827 231.214 118.999 230.726 118.081 230.553C116.298 230.553 114.839 232.29 114.839 234.49Z" fill="#263238"/>
<path d="M118.29 235.66C118.457 235.66 118.622 235.624 118.774 235.554C118.926 235.484 119.061 235.382 119.17 235.255C121.474 232.399 122.704 228.826 122.644 225.157C122.644 217.526 117.618 211.261 111.457 211.261C106.907 211.261 102.842 214.619 101.117 219.795C101.056 219.942 101.025 220.099 101.028 220.258C101.03 220.416 101.065 220.573 101.131 220.717C101.196 220.862 101.291 220.992 101.408 221.098C101.526 221.205 101.664 221.286 101.814 221.337C101.965 221.388 102.124 221.407 102.282 221.394C102.44 221.381 102.594 221.335 102.733 221.26C102.873 221.185 102.996 221.082 103.095 220.958C103.193 220.833 103.265 220.69 103.305 220.536C104.718 216.31 107.937 213.588 111.411 213.588C116.298 213.588 120.281 218.765 120.281 225.168C120.33 228.29 119.277 231.328 117.305 233.749C117.204 233.864 117.127 233.998 117.078 234.144C117.028 234.289 117.009 234.443 117.02 234.596C117.03 234.748 117.071 234.898 117.14 235.035C117.209 235.172 117.305 235.294 117.421 235.393C117.54 235.494 117.679 235.57 117.828 235.615C117.977 235.661 118.134 235.676 118.29 235.66Z" fill="#263238"/>
<g opacity="0.4">
<path opacity="0.4" d="M118.29 235.66C118.457 235.66 118.622 235.624 118.774 235.554C118.926 235.484 119.061 235.382 119.17 235.255C121.474 232.399 122.704 228.826 122.644 225.157C122.644 217.526 117.618 211.261 111.457 211.261C106.907 211.261 102.842 214.619 101.117 219.795C101.056 219.942 101.025 220.099 101.028 220.258C101.03 220.416 101.065 220.573 101.131 220.717C101.196 220.862 101.291 220.992 101.408 221.098C101.526 221.205 101.664 221.286 101.814 221.337C101.965 221.388 102.124 221.407 102.282 221.394C102.44 221.381 102.594 221.335 102.733 221.26C102.873 221.185 102.996 221.082 103.095 220.958C103.193 220.833 103.265 220.69 103.305 220.536C104.718 216.31 107.937 213.588 111.411 213.588C116.298 213.588 120.281 218.765 120.281 225.168C120.33 228.29 119.277 231.328 117.305 233.749C117.204 233.864 117.127 233.998 117.078 234.144C117.028 234.289 117.009 234.443 117.02 234.596C117.03 234.748 117.071 234.898 117.14 235.035C117.209 235.172 117.305 235.294 117.421 235.393C117.54 235.494 117.679 235.57 117.828 235.615C117.977 235.661 118.134 235.676 118.29 235.66Z" fill="white"/>
</g>
<path d="M134.421 313.176H124.717V329.724H134.421V313.176Z" fill="#407BFF"/>
<path d="M150.135 301.133H140.431V329.724H150.135V301.133Z" fill="#407BFF"/>
<path d="M165.86 305.649H156.156V329.724H165.86V305.649Z" fill="#407BFF"/>
<path d="M181.586 293.606H171.882V329.724H181.586V293.606Z" fill="#407BFF"/>
<path d="M197.3 281.563H187.596V329.724H197.3V281.563Z" fill="#407BFF"/>
<path opacity="0.5" d="M134.421 313.176H124.717V329.724H134.421V313.176Z" fill="white"/>
<path opacity="0.5" d="M150.135 301.133H140.431V329.724H150.135V301.133Z" fill="white"/>
<path opacity="0.5" d="M165.86 305.649H156.156V329.724H165.86V305.649Z" fill="white"/>
<path opacity="0.5" d="M181.586 293.606H171.882V329.724H181.586V293.606Z" fill="white"/>
<path opacity="0.5" d="M197.3 281.563H187.596V329.724H197.3V281.563Z" fill="white"/>
<path d="M210.247 327.431H111.388V332.017H210.247V327.431Z" fill="#263238"/>
<path d="M115.557 316.581L113.426 313.894L145.132 288.662L160.823 297.763L203.183 261.657L205.406 264.262L161.205 301.955L145.445 292.807L115.557 316.581Z" fill="#407BFF"/>
<path d="M206.819 260.835L200.38 261.831L204.92 266.671L206.819 260.835Z" fill="#407BFF"/>
<g opacity="0.3">
<path opacity="0.3" d="M167.447 346.932H111.504C111.197 346.932 110.902 346.81 110.685 346.593C110.468 346.376 110.346 346.081 110.346 345.774C110.346 345.467 110.468 345.172 110.685 344.955C110.902 344.738 111.197 344.616 111.504 344.616H167.447C167.754 344.616 168.048 344.738 168.266 344.955C168.483 345.172 168.605 345.467 168.605 345.774C168.605 346.081 168.483 346.376 168.266 346.593C168.048 346.81 167.754 346.932 167.447 346.932Z" fill="black"/>
</g>
<g opacity="0.3">
<path opacity="0.3" d="M210.663 357.25H119.494C119.187 357.25 118.892 357.128 118.675 356.911C118.458 356.693 118.336 356.399 118.336 356.092C118.336 355.785 118.458 355.49 118.675 355.273C118.892 355.056 119.187 354.934 119.494 354.934H210.663C210.97 354.934 211.265 355.056 211.482 355.273C211.699 355.49 211.821 355.785 211.821 356.092C211.821 356.399 211.699 356.693 211.482 356.911C211.265 357.128 210.97 357.25 210.663 357.25Z" fill="black"/>
<path opacity="0.3" d="M210.756 363.051H111.504C111.197 363.051 110.902 362.929 110.685 362.712C110.468 362.495 110.346 362.2 110.346 361.893C110.346 361.586 110.468 361.292 110.685 361.075C110.902 360.857 111.197 360.735 111.504 360.735H210.756C211.063 360.735 211.358 360.857 211.575 361.075C211.792 361.292 211.914 361.586 211.914 361.893C211.914 362.2 211.792 362.495 211.575 362.712C211.358 362.929 211.063 363.051 210.756 363.051Z" fill="black"/>
<path opacity="0.3" d="M210.918 368.853H111.631C111.324 368.853 111.029 368.731 110.812 368.514C110.595 368.297 110.473 368.002 110.473 367.695C110.473 367.388 110.595 367.093 110.812 366.876C111.029 366.659 111.324 366.537 111.631 366.537H210.918C211.225 366.537 211.52 366.659 211.737 366.876C211.954 367.093 212.076 367.388 212.076 367.695C212.076 368.002 211.954 368.297 211.737 368.514C211.52 368.731 211.225 368.853 210.918 368.853Z" fill="black"/>
<path opacity="0.3" d="M194.822 374.655H111.759C111.451 374.655 111.157 374.533 110.94 374.315C110.723 374.098 110.601 373.804 110.601 373.497C110.601 373.19 110.723 372.895 110.94 372.678C111.157 372.461 111.451 372.339 111.759 372.339H194.822C195.129 372.339 195.424 372.461 195.641 372.678C195.858 372.895 195.98 373.19 195.98 373.497C195.98 373.804 195.858 374.098 195.641 374.315C195.424 374.533 195.129 374.655 194.822 374.655Z" fill="black"/>
</g>
<g opacity="0.3">
<path opacity="0.3" d="M210.663 385.065H119.494C119.187 385.065 118.892 384.943 118.675 384.726C118.458 384.509 118.336 384.214 118.336 383.907C118.336 383.6 118.458 383.305 118.675 383.088C118.892 382.871 119.187 382.749 119.494 382.749H210.663C210.97 382.749 211.265 382.871 211.482 383.088C211.699 383.305 211.821 383.6 211.821 383.907C211.821 384.214 211.699 384.509 211.482 384.726C211.265 384.943 210.97 385.065 210.663 385.065Z" fill="black"/>
<path opacity="0.3" d="M210.756 390.867H111.504C111.197 390.867 110.902 390.745 110.685 390.527C110.468 390.31 110.346 390.016 110.346 389.709C110.346 389.401 110.468 389.107 110.685 388.89C110.902 388.673 111.197 388.551 111.504 388.551H210.756C211.063 388.551 211.358 388.673 211.575 388.89C211.792 389.107 211.914 389.401 211.914 389.709C211.914 390.016 211.792 390.31 211.575 390.527C211.358 390.745 211.063 390.867 210.756 390.867Z" fill="black"/>
<path opacity="0.3" d="M210.918 396.726H111.631C111.324 396.726 111.029 396.604 110.812 396.387C110.595 396.17 110.473 395.875 110.473 395.568C110.473 395.261 110.595 394.967 110.812 394.749C111.029 394.532 111.324 394.41 111.631 394.41H210.918C211.225 394.41 211.52 394.532 211.737 394.749C211.954 394.967 212.076 395.261 212.076 395.568C212.076 395.875 211.954 396.17 211.737 396.387C211.52 396.604 211.225 396.726 210.918 396.726Z" fill="black"/>
<path opacity="0.3" d="M194.822 402.516H111.759C111.451 402.516 111.157 402.394 110.94 402.177C110.723 401.96 110.601 401.665 110.601 401.358C110.601 401.051 110.723 400.757 110.94 400.539C111.157 400.322 111.451 400.2 111.759 400.2H194.822C195.129 400.2 195.424 400.322 195.641 400.539C195.858 400.757 195.98 401.051 195.98 401.358C195.98 401.665 195.858 401.96 195.641 402.177C195.424 402.394 195.129 402.516 194.822 402.516Z" fill="black"/>
</g>
<g opacity="0.3">
<path opacity="0.3" d="M167.447 250.725H111.504C111.197 250.725 110.902 250.603 110.685 250.386C110.468 250.169 110.346 249.875 110.346 249.567C110.346 249.26 110.468 248.966 110.685 248.749C110.902 248.531 111.197 248.409 111.504 248.409H167.447C167.754 248.409 168.048 248.531 168.266 248.749C168.483 248.966 168.605 249.26 168.605 249.567C168.605 249.875 168.483 250.169 168.266 250.386C168.048 250.603 167.754 250.725 167.447 250.725Z" fill="black"/>
</g>
<path d="M475.289 135.296H342.316C340.103 135.296 338.31 137.09 338.31 139.303V358.975C338.31 361.188 340.103 362.982 342.316 362.982H475.289C477.502 362.982 479.296 361.188 479.296 358.975V139.303C479.296 137.09 477.502 135.296 475.289 135.296Z" fill="#407BFF"/>
<path d="M371.532 134.207H446.085C446.281 134.207 446.47 134.285 446.609 134.424C446.748 134.563 446.826 134.752 446.826 134.948V142.406H370.78V134.948C370.78 134.85 370.799 134.753 370.837 134.662C370.875 134.571 370.931 134.489 371.001 134.42C371.071 134.351 371.154 134.297 371.245 134.26C371.337 134.224 371.434 134.206 371.532 134.207Z" fill="#263238"/>
<path opacity="0.9" d="M473.726 142.406H343.891V355.837H473.726V142.406Z" fill="white"/>
<path d="M434.25 152.226H411.426L411.159 151.427C410.998 150.932 410.684 150.501 410.263 150.195C409.842 149.89 409.335 149.725 408.814 149.725C408.294 149.725 407.787 149.89 407.366 150.195C406.945 150.501 406.631 150.932 406.469 151.427L406.203 152.226H383.356C382.47 152.226 381.621 151.875 380.993 151.25C380.366 150.625 380.012 149.776 380.009 148.891V140.484C380.015 139.599 380.37 138.753 380.997 138.128C381.623 137.504 382.471 137.152 383.356 137.149H434.308C435.191 137.152 436.038 137.504 436.663 138.129C437.287 138.754 437.64 139.6 437.643 140.484V148.914C437.64 149.355 437.549 149.791 437.377 150.197C437.204 150.602 436.953 150.97 436.637 151.278C436.322 151.586 435.948 151.828 435.539 151.991C435.129 152.154 434.691 152.234 434.25 152.226ZM413.012 149.91H434.25C434.384 149.911 434.517 149.886 434.642 149.835C434.766 149.785 434.879 149.71 434.974 149.615C435.069 149.52 435.144 149.407 435.194 149.283C435.245 149.158 435.27 149.025 435.269 148.891V140.484C435.269 140.213 435.162 139.954 434.97 139.763C434.779 139.572 434.52 139.465 434.25 139.465H383.298C383.163 139.463 383.029 139.488 382.904 139.539C382.779 139.589 382.666 139.664 382.57 139.759C382.474 139.854 382.398 139.967 382.346 140.091C382.294 140.215 382.267 140.349 382.267 140.484V148.914C382.267 149.049 382.294 149.182 382.346 149.307C382.398 149.431 382.474 149.544 382.57 149.639C382.666 149.733 382.779 149.808 382.904 149.859C383.029 149.909 383.163 149.935 383.298 149.933H404.605C405.015 149.173 405.622 148.539 406.363 148.097C407.104 147.654 407.951 147.421 408.814 147.421C409.677 147.421 410.524 147.654 411.265 148.097C412.006 148.539 412.614 149.173 413.024 149.933L413.012 149.91Z" fill="#263238"/>
<g opacity="0.5">
<path opacity="0.5" d="M434.25 152.226H411.426L411.159 151.427C410.998 150.932 410.684 150.501 410.263 150.195C409.842 149.89 409.335 149.725 408.814 149.725C408.294 149.725 407.787 149.89 407.366 150.195C406.945 150.501 406.631 150.932 406.469 151.427L406.203 152.226H383.356C382.47 152.226 381.621 151.875 380.993 151.25C380.366 150.625 380.012 149.776 380.009 148.891V140.484C380.015 139.599 380.37 138.753 380.997 138.128C381.623 137.504 382.471 137.152 383.356 137.149H434.308C435.191 137.152 436.038 137.504 436.663 138.129C437.287 138.754 437.64 139.6 437.643 140.484V148.914C437.64 149.355 437.549 149.791 437.377 150.197C437.204 150.602 436.953 150.97 436.637 151.278C436.322 151.586 435.948 151.828 435.539 151.991C435.129 152.154 434.691 152.234 434.25 152.226ZM413.012 149.91H434.25C434.384 149.911 434.517 149.886 434.642 149.835C434.766 149.785 434.879 149.71 434.974 149.615C435.069 149.52 435.144 149.407 435.194 149.283C435.245 149.158 435.27 149.025 435.269 148.891V140.484C435.269 140.213 435.162 139.954 434.97 139.763C434.779 139.572 434.52 139.465 434.25 139.465H383.298C383.163 139.463 383.029 139.488 382.904 139.539C382.779 139.589 382.666 139.664 382.57 139.759C382.474 139.854 382.398 139.967 382.346 140.091C382.294 140.215 382.267 140.349 382.267 140.484V148.914C382.267 149.049 382.294 149.182 382.346 149.307C382.398 149.431 382.474 149.544 382.57 149.639C382.666 149.733 382.779 149.808 382.904 149.859C383.029 149.909 383.163 149.935 383.298 149.933H404.605C405.015 149.173 405.622 148.539 406.363 148.097C407.104 147.654 407.951 147.421 408.814 147.421C409.677 147.421 410.524 147.654 411.265 148.097C412.006 148.539 412.614 149.173 413.024 149.933L413.012 149.91Z" fill="white"/>
</g>
<path d="M430.683 135.805H386.934C386.301 135.805 385.788 136.319 385.788 136.952V139.696C385.788 140.329 386.301 140.843 386.934 140.843H430.683C431.316 140.843 431.83 140.329 431.83 139.696V136.952C431.83 136.319 431.316 135.805 430.683 135.805Z" fill="#263238"/>
<path opacity="0.2" d="M430.683 135.805H386.934C386.301 135.805 385.788 136.319 385.788 136.952V139.696C385.788 140.329 386.301 140.843 386.934 140.843H430.683C431.316 140.843 431.83 140.329 431.83 139.696V136.952C431.83 136.319 431.316 135.805 430.683 135.805Z" fill="white"/>
<path d="M463.572 321.209C466.698 307.963 458.495 294.691 445.249 291.565C432.004 288.439 418.732 296.642 415.605 309.888C412.479 323.133 420.683 336.405 433.928 339.531C447.174 342.658 460.446 334.454 463.572 321.209Z" fill="#407BFF"/>
<path opacity="0.3" d="M439.6 315.573H464.242C464.242 320.447 462.797 325.211 460.089 329.264C457.381 333.316 453.533 336.475 449.03 338.34C444.527 340.205 439.572 340.693 434.792 339.742C430.012 338.791 425.621 336.444 422.175 332.998C418.729 329.552 416.382 325.161 415.431 320.381C414.48 315.601 414.968 310.646 416.833 306.143C418.698 301.64 421.857 297.792 425.909 295.084C429.962 292.376 434.726 290.931 439.6 290.931H439.692L439.6 315.573Z" fill="white"/>
<path opacity="0.3" d="M439.6 315.573L452.894 336.313C449.671 338.381 446.01 339.67 442.203 340.076C438.395 340.483 434.545 339.997 430.958 338.656C427.372 337.316 424.147 335.158 421.539 332.353C418.932 329.549 417.014 326.176 415.937 322.501C414.861 318.826 414.655 314.951 415.338 311.183C416.02 307.415 417.571 303.858 419.867 300.794C422.164 297.73 425.143 295.243 428.568 293.531C431.993 291.819 435.771 290.929 439.6 290.931H439.681L439.6 315.573Z" fill="white"/>
<path opacity="0.3" d="M439.6 315.573L418.825 328.821C416.451 325.096 415.121 320.802 414.975 316.387C414.829 311.972 415.873 307.599 417.996 303.726C420.12 299.853 423.246 296.622 427.046 294.371C430.847 292.12 435.183 290.932 439.6 290.931H439.681L439.6 315.573Z" fill="white"/>
<g opacity="0.5">
<path opacity="0.5" d="M353.248 180.632V238.786H464.416V180.632H353.248ZM463.501 189.71H444.267V181.5H463.501V189.71ZM402.069 189.71H382.267V181.5H402.069V189.71ZM402.938 181.5H422.728V189.71H402.984L402.938 181.5ZM402.069 190.579V237.918H382.267V190.602L402.069 190.579ZM402.938 190.579H422.728V237.918H402.984L402.938 190.579ZM423.596 190.579H443.398V237.918H423.596V190.579ZM423.596 189.71V181.5H443.398V189.71H423.596ZM381.399 181.5V189.71H354.116V181.5H381.399ZM354.116 190.602H381.399V237.941H354.116V190.602ZM444.267 237.941V190.602H463.501V237.941H444.267Z" fill="black"/>
<path opacity="0.5" d="M388.578 198.708H396.592C396.899 198.708 397.193 198.586 397.411 198.369C397.628 198.152 397.75 197.857 397.75 197.55C397.75 197.243 397.628 196.948 397.411 196.731C397.193 196.514 396.899 196.392 396.592 196.392H388.578C388.271 196.392 387.977 196.514 387.76 196.731C387.542 196.948 387.42 197.243 387.42 197.55C387.42 197.857 387.542 198.152 387.76 198.369C387.977 198.586 388.271 198.708 388.578 198.708Z" fill="black"/>
<path opacity="0.5" d="M408.774 209.211H417.471C417.778 209.211 418.072 209.089 418.289 208.872C418.507 208.655 418.629 208.36 418.629 208.053C418.629 207.746 418.507 207.451 418.289 207.234C418.072 207.017 417.778 206.895 417.471 206.895H408.774C408.467 206.895 408.172 207.017 407.955 207.234C407.738 207.451 407.616 207.746 407.616 208.053C407.616 208.36 407.738 208.655 407.955 208.872C408.172 209.089 408.467 209.211 408.774 209.211Z" fill="black"/>
<path opacity="0.5" d="M417.887 227.913H408.774C408.467 227.913 408.172 228.035 407.955 228.252C407.738 228.469 407.616 228.764 407.616 229.071C407.616 229.378 407.738 229.672 407.955 229.89C408.172 230.107 408.467 230.229 408.774 230.229H417.853C418.16 230.229 418.454 230.107 418.672 229.89C418.889 229.672 419.011 229.378 419.011 229.071C419.011 228.764 418.889 228.469 418.672 228.252C418.454 228.035 418.16 227.913 417.853 227.913H417.887Z" fill="black"/>
<path opacity="0.5" d="M438.036 217.398H428.46C428.153 217.398 427.858 217.52 427.641 217.737C427.424 217.954 427.302 218.249 427.302 218.556C427.302 218.863 427.424 219.158 427.641 219.375C427.858 219.592 428.153 219.714 428.46 219.714H438.06C438.367 219.714 438.661 219.592 438.878 219.375C439.096 219.158 439.218 218.863 439.218 218.556C439.218 218.249 439.096 217.954 438.878 217.737C438.661 217.52 438.367 217.398 438.06 217.398H438.036Z" fill="black"/>
<path opacity="0.5" d="M458.753 196.392H449.026C448.719 196.392 448.424 196.514 448.207 196.731C447.99 196.948 447.868 197.243 447.868 197.55C447.868 197.857 447.99 198.152 448.207 198.369C448.424 198.586 448.719 198.708 449.026 198.708H458.753C459.06 198.708 459.355 198.586 459.572 198.369C459.789 198.152 459.911 197.857 459.911 197.55C459.911 197.243 459.789 196.948 459.572 196.731C459.355 196.514 459.06 196.392 458.753 196.392Z" fill="black"/>
<path opacity="0.5" d="M457.502 227.913H449.026C448.719 227.913 448.424 228.035 448.207 228.252C447.99 228.469 447.868 228.764 447.868 229.071C447.868 229.378 447.99 229.672 448.207 229.89C448.424 230.107 448.719 230.229 449.026 230.229H457.502C457.81 230.229 458.104 230.107 458.321 229.89C458.538 229.672 458.66 229.378 458.66 229.071C458.66 228.764 458.538 228.469 458.321 228.252C458.104 228.035 457.81 227.913 457.502 227.913Z" fill="black"/>
<path opacity="0.5" d="M388.578 219.714H395.445C395.752 219.714 396.047 219.592 396.264 219.375C396.481 219.158 396.603 218.863 396.603 218.556C396.603 218.249 396.481 217.954 396.264 217.737C396.047 217.52 395.752 217.398 395.445 217.398H388.578C388.271 217.398 387.977 217.52 387.76 217.737C387.542 217.954 387.42 218.249 387.42 218.556C387.42 218.863 387.542 219.158 387.76 219.375C387.977 219.592 388.271 219.714 388.578 219.714Z" fill="black"/>
<path opacity="0.5" d="M396.592 227.913H388.578C388.271 227.913 387.977 228.035 387.76 228.252C387.542 228.469 387.42 228.764 387.42 229.071C387.42 229.378 387.542 229.672 387.76 229.89C387.977 230.107 388.271 230.229 388.578 230.229H396.592C396.899 230.229 397.193 230.107 397.411 229.89C397.628 229.672 397.75 229.378 397.75 229.071C397.75 228.764 397.628 228.469 397.411 228.252C397.193 228.035 396.899 227.913 396.592 227.913Z" fill="black"/>
<path opacity="0.5" d="M358.297 198.708H376.616C376.923 198.708 377.218 198.586 377.435 198.369C377.652 198.152 377.774 197.857 377.774 197.55C377.774 197.243 377.652 196.948 377.435 196.731C377.218 196.514 376.923 196.392 376.616 196.392H358.297C357.99 196.392 357.695 196.514 357.478 196.731C357.261 196.948 357.139 197.243 357.139 197.55C357.139 197.857 357.261 198.152 357.478 198.369C357.695 198.586 357.99 198.708 358.297 198.708Z" fill="black"/>
<path opacity="0.5" d="M358.297 209.211H370.49C370.798 209.211 371.092 209.089 371.309 208.872C371.526 208.655 371.648 208.36 371.648 208.053C371.648 207.746 371.526 207.451 371.309 207.234C371.092 207.017 370.798 206.895 370.49 206.895H358.297C357.99 206.895 357.695 207.017 357.478 207.234C357.261 207.451 357.139 207.746 357.139 208.053C357.139 208.36 357.261 208.655 357.478 208.872C357.695 209.089 357.99 209.211 358.297 209.211Z" fill="black"/>
<path opacity="0.5" d="M376.616 217.398H358.297C357.99 217.398 357.695 217.52 357.478 217.737C357.261 217.954 357.139 218.249 357.139 218.556C357.139 218.863 357.261 219.158 357.478 219.375C357.695 219.592 357.99 219.714 358.297 219.714H376.616C376.923 219.714 377.218 219.592 377.435 219.375C377.652 219.158 377.774 218.863 377.774 218.556C377.774 218.249 377.652 217.954 377.435 217.737C377.218 217.52 376.923 217.398 376.616 217.398Z" fill="black"/>
<path opacity="0.5" d="M367.456 227.913H358.297C357.99 227.913 357.695 228.035 357.478 228.252C357.261 228.469 357.139 228.764 357.139 229.071C357.139 229.378 357.261 229.672 357.478 229.89C357.695 230.107 357.99 230.229 358.297 230.229H367.456C367.764 230.229 368.058 230.107 368.275 229.89C368.492 229.672 368.614 229.378 368.614 229.071C368.614 228.764 368.492 228.469 368.275 228.252C368.058 228.035 367.764 227.913 367.456 227.913Z" fill="black"/>
</g>
<g opacity="0.5">
<path opacity="0.5" d="M397.761 168.438H354.406C354.099 168.438 353.804 168.316 353.587 168.099C353.37 167.881 353.248 167.587 353.248 167.28C353.248 166.973 353.37 166.678 353.587 166.461C353.804 166.244 354.099 166.122 354.406 166.122H397.761C398.068 166.122 398.363 166.244 398.58 166.461C398.797 166.678 398.919 166.973 398.919 167.28C398.919 167.587 398.797 167.881 398.58 168.099C398.363 168.316 398.068 168.438 397.761 168.438Z" fill="black"/>
</g>
<g opacity="0.5">
<path opacity="0.5" d="M382.557 174.934H354.406C354.099 174.934 353.804 174.812 353.587 174.595C353.37 174.378 353.248 174.083 353.248 173.776C353.248 173.469 353.37 173.174 353.587 172.957C353.804 172.74 354.099 172.618 354.406 172.618H382.557C382.864 172.618 383.158 172.74 383.376 172.957C383.593 173.174 383.715 173.469 383.715 173.776C383.715 174.083 383.593 174.378 383.376 174.595C383.158 174.812 382.864 174.934 382.557 174.934Z" fill="black"/>
</g>
<g opacity="0.5">
<path opacity="0.5" d="M410.349 248.826H354.406C354.099 248.826 353.804 248.704 353.587 248.487C353.37 248.27 353.248 247.975 353.248 247.668C353.248 247.361 353.37 247.067 353.587 246.849C353.804 246.632 354.099 246.51 354.406 246.51H410.349C410.656 246.51 410.95 246.632 411.168 246.849C411.385 247.067 411.507 247.361 411.507 247.668C411.507 247.975 411.385 248.27 411.168 248.487C410.95 248.704 410.656 248.826 410.349 248.826Z" fill="black"/>
</g>
<path d="M360.161 294.729H353.248V301.642H360.161V294.729Z" fill="#407BFF"/>
<g opacity="0.5">
<path opacity="0.5" d="M399.51 299.35H365.187C364.88 299.35 364.585 299.228 364.368 299.01C364.151 298.793 364.029 298.499 364.029 298.192C364.029 297.885 364.151 297.59 364.368 297.373C364.585 297.156 364.88 297.034 365.187 297.034H399.51C399.817 297.034 400.112 297.156 400.329 297.373C400.546 297.59 400.668 297.885 400.668 298.192C400.668 298.499 400.546 298.793 400.329 299.01C400.112 299.228 399.817 299.35 399.51 299.35Z" fill="black"/>
</g>
<path d="M360.161 306.321H353.248V313.234H360.161V306.321Z" fill="#407BFF"/>
<g opacity="0.5">
<path opacity="0.5" d="M399.51 310.93H365.187C364.88 310.93 364.585 310.808 364.368 310.591C364.151 310.373 364.029 310.079 364.029 309.772C364.029 309.465 364.151 309.17 364.368 308.953C364.585 308.736 364.88 308.614 365.187 308.614H399.51C399.817 308.614 400.112 308.736 400.329 308.953C400.546 309.17 400.668 309.465 400.668 309.772C400.668 310.079 400.546 310.373 400.329 310.591C400.112 310.808 399.817 310.93 399.51 310.93Z" fill="black"/>
</g>
<path d="M360.161 317.901H353.248V324.814H360.161V317.901Z" fill="#407BFF"/>
<g opacity="0.5">
<path opacity="0.5" d="M399.51 322.521H365.187C364.88 322.521 364.585 322.399 364.368 322.182C364.151 321.965 364.029 321.67 364.029 321.363C364.029 321.056 364.151 320.762 364.368 320.544C364.585 320.327 364.88 320.205 365.187 320.205H399.51C399.817 320.205 400.112 320.327 400.329 320.544C400.546 320.762 400.668 321.056 400.668 321.363C400.668 321.67 400.546 321.965 400.329 322.182C400.112 322.399 399.817 322.521 399.51 322.521Z" fill="black"/>
</g>
<path d="M360.161 329.492H353.248V336.406H360.161V329.492Z" fill="#407BFF"/>
<g opacity="0.5">
<path opacity="0.5" d="M399.51 334.113H365.187C364.88 334.113 364.585 333.991 364.368 333.774C364.151 333.557 364.029 333.262 364.029 332.955C364.029 332.648 364.151 332.353 364.368 332.136C364.585 331.919 364.88 331.797 365.187 331.797H399.51C399.817 331.797 400.112 331.919 400.329 332.136C400.546 332.353 400.668 332.648 400.668 332.955C400.668 333.262 400.546 333.557 400.329 333.774C400.112 333.991 399.817 334.113 399.51 334.113Z" fill="black"/>
</g>
<g opacity="0.5">
<path opacity="0.5" d="M462.829 259.179H362.385C362.077 259.179 361.783 259.057 361.566 258.84C361.349 258.622 361.227 258.328 361.227 258.021C361.227 257.714 361.349 257.419 361.566 257.202C361.783 256.985 362.077 256.863 362.385 256.863H462.829C463.137 256.863 463.431 256.985 463.648 257.202C463.866 257.419 463.987 257.714 463.987 258.021C463.987 258.328 463.866 258.622 463.648 258.84C463.431 259.057 463.137 259.179 462.829 259.179Z" fill="black"/>
<path opacity="0.5" d="M462.957 264.98H354.406C354.099 264.98 353.804 264.858 353.587 264.641C353.37 264.424 353.248 264.129 353.248 263.822C353.248 263.515 353.37 263.221 353.587 263.003C353.804 262.786 354.099 262.664 354.406 262.664H462.957C463.264 262.664 463.558 262.786 463.776 263.003C463.993 263.221 464.115 263.515 464.115 263.822C464.115 264.129 463.993 264.424 463.776 264.641C463.558 264.858 463.264 264.98 462.957 264.98Z" fill="black"/>
<path opacity="0.5" d="M463.084 270.782H354.533C354.226 270.782 353.932 270.66 353.714 270.443C353.497 270.225 353.375 269.931 353.375 269.624C353.375 269.317 353.497 269.022 353.714 268.805C353.932 268.588 354.226 268.466 354.533 268.466H463.084C463.391 268.466 463.686 268.588 463.903 268.805C464.12 269.022 464.242 269.317 464.242 269.624C464.242 269.931 464.12 270.225 463.903 270.443C463.686 270.66 463.391 270.782 463.084 270.782Z" fill="black"/>
<path opacity="0.5" d="M446.988 276.584H354.66C354.353 276.584 354.059 276.462 353.842 276.244C353.624 276.027 353.502 275.733 353.502 275.426C353.502 275.118 353.624 274.824 353.842 274.607C354.059 274.39 354.353 274.268 354.66 274.268H446.988C447.295 274.268 447.589 274.39 447.807 274.607C448.024 274.824 448.146 275.118 448.146 275.426C448.146 275.733 448.024 276.027 447.807 276.244C447.589 276.462 447.295 276.584 446.988 276.584Z" fill="black"/>
</g>
<path opacity="0.3" d="M360.161 306.321H353.248V313.234H360.161V306.321Z" fill="white"/>
<path opacity="0.5" d="M360.161 317.901H353.248V324.814H360.161V317.901Z" fill="white"/>
<path opacity="0.7" d="M360.161 329.492H353.248V336.406H360.161V329.492Z" fill="white"/>
<path d="M471.781 392.384C471.781 392.384 466.28 380.387 472.568 368.552C478.856 356.717 480.674 353.938 476.668 351.518C472.661 349.098 470.82 360.979 470.82 360.979C468.838 355.603 468.635 349.733 470.241 344.234C473.02 335.676 474.769 321.734 470.97 320.24C467.172 318.746 470.241 337.61 466.929 344.072C465.249 339.549 464.163 334.827 463.698 330.025C463.246 323.158 463.953 312.181 460.954 309.367C457.954 306.553 456.021 308.498 458.973 323.668C460.748 332.733 461.729 341.935 461.903 351.17C461.903 351.17 455.384 331.264 450.995 330.685C446.606 330.106 446.618 336.556 450.37 342.15C454.121 347.743 461.359 357.748 462.54 362.901C462.54 362.901 455.372 347.928 448.934 352.479C442.495 357.03 454.538 366.12 459.911 369.386C465.285 372.651 468.99 393.183 468.99 393.183L471.781 392.384Z" fill="#407BFF"/>
<path opacity="0.2" d="M471.781 392.384C471.781 392.384 466.28 380.387 472.568 368.552C478.856 356.717 480.674 353.938 476.668 351.518C472.661 349.098 470.82 360.979 470.82 360.979C468.838 355.603 468.635 349.733 470.241 344.234C473.02 335.676 474.769 321.734 470.97 320.24C467.172 318.746 470.241 337.61 466.929 344.072C465.249 339.549 464.163 334.827 463.698 330.025C463.246 323.158 463.953 312.181 460.954 309.367C457.954 306.553 456.021 308.498 458.973 323.668C460.748 332.733 461.729 341.935 461.903 351.17C461.903 351.17 455.384 331.264 450.995 330.685C446.606 330.106 446.618 336.556 450.37 342.15C454.121 347.743 461.359 357.748 462.54 362.901C462.54 362.901 455.372 347.928 448.934 352.479C442.495 357.03 454.538 366.12 459.911 369.386C465.285 372.651 468.99 393.183 468.99 393.183L471.781 392.384Z" fill="black"/>
<path d="M467.438 397.305C467.438 397.305 472.8 385.227 466.373 373.497C459.946 361.766 458.093 358.998 462.065 356.509C466.037 354.019 468.029 365.889 468.029 365.889C469.948 360.492 470.082 354.622 468.411 349.144C465.528 340.621 463.605 326.713 467.392 325.162C471.179 323.61 468.33 342.532 471.711 348.924C473.339 344.383 474.371 339.649 474.78 334.843C475.151 327.952 474.305 316.986 477.281 314.126C480.258 311.266 482.203 313.188 479.424 328.404C477.76 337.494 476.892 346.712 476.83 355.953C476.83 355.953 483.118 335.954 487.518 335.352C491.919 334.75 491.965 341.142 488.282 346.793C484.6 352.444 477.49 362.565 476.367 367.73C476.367 367.73 483.315 352.676 489.846 357.146C496.377 361.615 484.403 370.868 479.076 374.215C473.75 377.561 470.252 398.104 470.252 398.104L467.438 397.305Z" fill="#407BFF"/>
<path d="M492.15 388.701H447.903L451.481 420.361H488.56L492.15 388.701Z" fill="#263238"/>
<path d="M224.953 117.15H258.234C260.949 117.15 263.553 118.229 265.473 120.148C267.392 122.068 268.471 124.672 268.471 127.387V156.337C268.471 159.052 267.392 161.656 265.473 163.575C263.553 165.495 260.949 166.574 258.234 166.574H248.507L251.981 179.196L241.559 166.574H224.953C223.608 166.575 222.275 166.311 221.032 165.798C219.789 165.284 218.659 164.53 217.707 163.579C216.755 162.629 216 161.5 215.485 160.257C214.97 159.014 214.705 157.682 214.705 156.337V127.387C214.705 126.042 214.97 124.709 215.485 123.467C216 122.224 216.755 121.095 217.707 120.144C218.659 119.194 219.789 118.44 221.032 117.926C222.275 117.412 223.608 117.149 224.953 117.15Z" fill="#407BFF"/>
<path opacity="0.7" d="M224.953 117.15H258.234C260.949 117.15 263.553 118.229 265.473 120.148C267.392 122.068 268.471 124.672 268.471 127.387V156.337C268.471 159.052 267.392 161.656 265.473 163.575C263.553 165.495 260.949 166.574 258.234 166.574H248.507L251.981 179.196L241.559 166.574H224.953C223.608 166.575 222.275 166.311 221.032 165.798C219.789 165.284 218.659 164.53 217.707 163.579C216.755 162.629 216 161.5 215.485 160.257C214.97 159.014 214.705 157.682 214.705 156.337V127.387C214.705 126.042 214.97 124.709 215.485 123.467C216 122.224 216.755 121.095 217.707 120.144C218.659 119.194 219.789 118.44 221.032 117.926C222.275 117.412 223.608 117.149 224.953 117.15Z" fill="white"/>
<path opacity="0.7" d="M236.556 148.173C242.28 148.173 246.92 143.533 246.92 137.809C246.92 132.085 242.28 127.445 236.556 127.445C230.832 127.445 226.192 132.085 226.192 137.809C226.192 143.533 230.832 148.173 236.556 148.173Z" fill="white"/>
<path d="M236.556 149.667C233.813 149.664 231.156 148.711 229.037 146.97C226.918 145.228 225.468 142.806 224.935 140.115C224.401 137.425 224.817 134.633 226.111 132.214C227.405 129.796 229.498 127.901 232.032 126.852C234.567 125.803 237.386 125.665 240.011 126.462C242.635 127.259 244.903 128.941 246.426 131.222C247.95 133.503 248.636 136.242 248.367 138.971C248.098 141.701 246.891 144.253 244.952 146.193C243.85 147.296 242.541 148.171 241.101 148.768C239.66 149.364 238.115 149.669 236.556 149.667ZM236.556 128.95C234.507 128.95 232.521 129.661 230.937 130.962C229.353 132.262 228.268 134.072 227.869 136.082C227.469 138.092 227.779 140.179 228.746 141.986C229.712 143.793 231.275 145.21 233.169 145.994C235.062 146.778 237.169 146.881 239.13 146.286C241.091 145.691 242.786 144.434 243.924 142.73C245.062 141.025 245.575 138.979 245.374 136.939C245.172 134.9 244.27 132.993 242.821 131.544C242 130.718 241.024 130.064 239.949 129.619C238.873 129.173 237.72 128.946 236.556 128.95Z" fill="#407BFF"/>
<path d="M244.955 144.074L242.826 146.203L254.642 158.018L256.771 155.889L244.955 144.074Z" fill="#407BFF"/>
<path d="M256.972 160.494C256.374 160.489 255.801 160.252 255.374 159.834L246.353 150.813C246.128 150.608 245.946 150.359 245.82 150.081C245.693 149.804 245.624 149.504 245.617 149.199C245.61 148.894 245.664 148.591 245.777 148.307C245.89 148.024 246.059 147.767 246.275 147.551C246.49 147.335 246.747 147.165 247.03 147.05C247.312 146.936 247.615 146.881 247.92 146.887C248.225 146.893 248.526 146.961 248.804 147.087C249.082 147.212 249.331 147.393 249.537 147.617L258.57 156.65C258.882 156.966 259.094 157.368 259.179 157.804C259.264 158.24 259.219 158.692 259.048 159.103C258.877 159.513 258.589 159.864 258.22 160.112C257.851 160.359 257.416 160.492 256.972 160.494Z" fill="#407BFF"/>
<path d="M238.166 133.119C238.166 133.577 238.03 134.025 237.776 134.406C237.521 134.787 237.159 135.083 236.736 135.259C236.313 135.434 235.847 135.48 235.398 135.39C234.949 135.301 234.536 135.081 234.212 134.757C233.888 134.433 233.668 134.02 233.578 133.571C233.489 133.122 233.535 132.656 233.71 132.233C233.886 131.809 234.182 131.448 234.563 131.193C234.944 130.939 235.392 130.803 235.85 130.803C236.464 130.803 237.053 131.047 237.488 131.481C237.922 131.916 238.166 132.505 238.166 133.119Z" fill="white"/>
<path d="M241.605 134.81C241.605 135.039 241.537 135.263 241.41 135.453C241.283 135.643 241.102 135.792 240.89 135.879C240.679 135.967 240.446 135.99 240.221 135.945C239.997 135.901 239.79 135.79 239.628 135.628C239.466 135.466 239.356 135.26 239.311 135.036C239.267 134.811 239.29 134.578 239.377 134.366C239.465 134.155 239.613 133.974 239.804 133.847C239.994 133.72 240.218 133.652 240.447 133.652C240.754 133.652 241.049 133.774 241.266 133.991C241.483 134.208 241.605 134.502 241.605 134.81Z" fill="white"/>
<path d="M334.407 330.095H161.935V357.852H334.407V330.095Z" fill="#407BFF"/>
<path opacity="0.8" d="M334.407 330.095H161.935V357.852H334.407V330.095Z" fill="white"/>
<path opacity="0.2" d="M334.407 337.437V335.178L216.326 336.116L334.407 337.437Z" fill="black"/>
<path opacity="0.2" d="M334.407 347.164V345.415L281.394 347.314L334.407 347.164Z" fill="black"/>
<path opacity="0.2" d="M334.407 353.672V351.414L248.935 352.722L334.407 353.672Z" fill="black"/>
<path opacity="0.2" d="M200.496 330.095L198.018 350.788L200.971 347.638C201.963 351.416 203.818 354.912 206.39 357.852C208.235 355.435 209.703 352.753 210.744 349.897L291.295 348.97L211.509 347.222C211.757 346.08 211.885 344.916 211.891 343.748C211.887 342.78 211.794 341.815 211.613 340.864L329.798 340.563L211.335 339.637C210.918 338.078 210.336 336.567 209.598 335.132C211.302 333.629 213.498 332.805 215.77 332.816H334.407V330.095H200.496Z" fill="black"/>
<path d="M203.16 343.817C203.169 347.145 204.496 350.333 206.851 352.683C209.206 355.034 212.397 356.355 215.724 356.358H336.399C336.521 356.358 336.641 356.382 336.754 356.429C336.866 356.475 336.968 356.544 337.054 356.63C337.14 356.716 337.208 356.818 337.255 356.93C337.302 357.043 337.325 357.163 337.325 357.285V358.281C337.325 358.526 337.228 358.762 337.054 358.936C336.88 359.109 336.645 359.207 336.399 359.207H158.137C156.103 359.207 154.09 358.805 152.213 358.023C150.336 357.241 148.633 356.095 147.201 354.651C145.769 353.207 144.637 351.495 143.871 349.611C143.104 347.728 142.718 345.711 142.735 343.678C142.835 339.568 144.548 335.663 147.503 332.805C150.459 329.947 154.419 328.367 158.53 328.404H336.399C336.645 328.404 336.88 328.502 337.054 328.676C337.228 328.849 337.325 329.085 337.325 329.331V330.315C337.325 330.561 337.228 330.796 337.054 330.97C336.88 331.144 336.645 331.241 336.399 331.241H216.094C212.723 331.234 209.483 332.546 207.066 334.895C204.649 337.245 203.247 340.447 203.16 343.817Z" fill="#407BFF"/>
<path opacity="0.4" d="M203.16 343.817C203.169 347.145 204.496 350.333 206.851 352.683C209.206 355.034 212.397 356.355 215.724 356.358H336.399C336.521 356.358 336.641 356.382 336.754 356.429C336.866 356.475 336.968 356.544 337.054 356.63C337.14 356.716 337.208 356.818 337.255 356.93C337.302 357.043 337.325 357.163 337.325 357.285V358.281C337.325 358.526 337.228 358.762 337.054 358.936C336.88 359.109 336.645 359.207 336.399 359.207H158.137C156.103 359.207 154.09 358.805 152.213 358.023C150.336 357.241 148.633 356.095 147.201 354.651C145.769 353.207 144.637 351.495 143.871 349.611C143.104 347.728 142.718 345.711 142.735 343.678C142.835 339.568 144.548 335.663 147.503 332.805C150.459 329.947 154.419 328.367 158.53 328.404H336.399C336.645 328.404 336.88 328.502 337.054 328.676C337.228 328.849 337.325 329.085 337.325 329.331V330.315C337.325 330.561 337.228 330.796 337.054 330.97C336.88 331.144 336.645 331.241 336.399 331.241H216.094C212.723 331.234 209.483 332.546 207.066 334.895C204.649 337.245 203.247 340.447 203.16 343.817Z" fill="white"/>
<path d="M203.16 343.817C203.169 347.144 204.496 350.332 206.851 352.683C209.206 355.034 212.397 356.355 215.724 356.358H336.399C336.521 356.358 336.641 356.382 336.754 356.429C336.866 356.475 336.968 356.544 337.054 356.63C337.14 356.716 337.209 356.818 337.255 356.93C337.302 357.043 337.326 357.163 337.326 357.285V358.281C337.326 358.526 337.228 358.762 337.054 358.936C336.88 359.109 336.645 359.207 336.399 359.207H215.029C212.996 359.205 210.983 358.802 209.106 358.02C207.229 357.237 205.525 356.092 204.093 354.648C202.66 353.205 201.527 351.493 200.759 349.61C199.991 347.728 199.602 345.712 199.616 343.678C199.722 339.574 201.434 335.676 204.383 332.82C207.332 329.964 211.283 328.378 215.388 328.404H336.399C336.645 328.404 336.88 328.502 337.054 328.675C337.228 328.849 337.326 329.085 337.326 329.331V330.315C337.326 330.561 337.228 330.796 337.054 330.97C336.88 331.144 336.645 331.241 336.399 331.241H216.095C212.724 331.234 209.483 332.546 207.066 334.895C204.649 337.245 203.247 340.447 203.16 343.817Z" fill="#407BFF"/>
<path d="M225.88 336.336V347.465L229.909 343.435L233.812 347.337V336.336H225.88Z" fill="#263238"/>
<path opacity="0.6" d="M203.16 343.817C203.169 347.144 204.496 350.332 206.851 352.683C209.206 355.034 212.397 356.355 215.724 356.358H336.399C336.521 356.358 336.641 356.382 336.754 356.429C336.866 356.475 336.968 356.544 337.054 356.63C337.14 356.716 337.209 356.818 337.255 356.93C337.302 357.043 337.326 357.163 337.326 357.285V358.281C337.326 358.526 337.228 358.762 337.054 358.936C336.88 359.109 336.645 359.207 336.399 359.207H215.029C212.996 359.205 210.983 358.802 209.106 358.02C207.229 357.237 205.525 356.092 204.093 354.648C202.66 353.205 201.527 351.493 200.759 349.61C199.991 347.728 199.602 345.712 199.616 343.678C199.722 339.574 201.434 335.676 204.383 332.82C207.332 329.964 211.283 328.378 215.388 328.404H336.399C336.645 328.404 336.88 328.502 337.054 328.675C337.228 328.849 337.326 329.085 337.326 329.331V330.315C337.326 330.561 337.228 330.796 337.054 330.97C336.88 331.144 336.645 331.241 336.399 331.241H216.095C212.724 331.234 209.483 332.546 207.066 334.895C204.649 337.245 203.247 340.447 203.16 343.817Z" fill="white"/>
<path d="M342.733 391.26H170.261V419.017H342.733V391.26Z" fill="#407BFF"/>
<path opacity="0.7" d="M342.733 391.26H170.261V419.017H342.733V391.26Z" fill="white"/>
<path opacity="0.2" d="M342.733 398.59V396.332L224.652 397.282L342.733 398.59Z" fill="black"/>
<path opacity="0.2" d="M342.733 408.318V406.581L289.72 408.468L342.733 408.318Z" fill="black"/>
<path opacity="0.2" d="M342.733 414.826V412.579L257.261 413.876L342.733 414.826Z" fill="black"/>
<path opacity="0.2" d="M208.822 391.26L206.321 411.954L209.274 408.804C210.277 412.58 212.135 416.074 214.705 419.017C216.541 416.593 218.005 413.908 219.047 411.05L299.598 410.124L219.812 408.387C220.062 407.246 220.194 406.082 220.205 404.913C220.197 403.945 220.101 402.98 219.916 402.03L338.136 401.763L219.661 400.837C219.244 399.281 218.662 397.775 217.924 396.344C219.619 394.82 221.817 393.975 224.096 393.97H342.768V391.26H208.822Z" fill="black"/>
<path d="M211.486 404.971C211.48 406.624 211.8 408.263 212.429 409.792C213.058 411.321 213.982 412.711 215.15 413.881C216.317 415.052 217.705 415.981 219.232 416.614C220.759 417.247 222.397 417.572 224.05 417.57H344.725C344.971 417.57 345.206 417.668 345.38 417.841C345.554 418.015 345.652 418.251 345.652 418.497V419.492C345.652 419.738 345.554 419.974 345.38 420.147C345.206 420.321 344.971 420.419 344.725 420.419H156.979C154.947 420.416 152.936 420.012 151.061 419.229C149.187 418.447 147.485 417.302 146.054 415.86C144.623 414.418 143.491 412.708 142.722 410.827C141.954 408.947 141.565 406.933 141.577 404.902C141.674 400.787 143.387 396.875 146.345 394.013C149.303 391.15 153.268 389.567 157.384 389.604H344.725C344.971 389.604 345.206 389.702 345.38 389.876C345.554 390.049 345.652 390.285 345.652 390.531V391.527C345.652 391.772 345.554 392.008 345.38 392.182C345.206 392.355 344.971 392.453 344.725 392.453H224.421C221.059 392.445 217.828 393.749 215.412 396.087C212.997 398.424 211.588 401.611 211.486 404.971Z" fill="#263238"/>
<path opacity="0.2" d="M211.486 404.971C211.48 406.624 211.8 408.263 212.429 409.792C213.058 411.321 213.982 412.711 215.15 413.881C216.317 415.052 217.705 415.981 219.232 416.614C220.759 417.247 222.397 417.572 224.05 417.57H344.725C344.971 417.57 345.206 417.668 345.38 417.841C345.554 418.015 345.652 418.251 345.652 418.497V419.492C345.652 419.738 345.554 419.974 345.38 420.147C345.206 420.321 344.971 420.419 344.725 420.419H156.979C154.947 420.416 152.936 420.012 151.061 419.229C149.187 418.447 147.485 417.302 146.054 415.86C144.623 414.418 143.491 412.708 142.722 410.827C141.954 408.947 141.565 406.933 141.577 404.902C141.674 400.787 143.387 396.875 146.345 394.013C149.303 391.15 153.268 389.567 157.384 389.604H344.725C344.971 389.604 345.206 389.702 345.38 389.876C345.554 390.049 345.652 390.285 345.652 390.531V391.527C345.652 391.772 345.554 392.008 345.38 392.182C345.206 392.355 344.971 392.453 344.725 392.453H224.421C221.059 392.445 217.828 393.749 215.412 396.087C212.997 398.424 211.588 401.611 211.486 404.971Z" fill="white"/>
<path d="M211.486 404.971C211.48 406.624 211.8 408.263 212.429 409.792C213.058 411.321 213.983 412.711 215.15 413.881C216.317 415.052 217.705 415.98 219.232 416.614C220.759 417.247 222.397 417.572 224.05 417.57H344.725C344.971 417.57 345.206 417.668 345.38 417.841C345.554 418.015 345.652 418.251 345.652 418.497V419.492C345.652 419.738 345.554 419.974 345.38 420.147C345.206 420.321 344.971 420.419 344.725 420.419H223.355C221.323 420.419 219.311 420.017 217.434 419.235C215.558 418.454 213.855 417.309 212.424 415.867C210.992 414.425 209.86 412.713 209.093 410.831C208.326 408.949 207.939 406.934 207.954 404.902C208.048 400.788 209.758 396.876 212.714 394.013C215.67 391.151 219.634 389.567 223.749 389.604H344.725C344.971 389.604 345.206 389.702 345.38 389.876C345.554 390.049 345.652 390.285 345.652 390.531V391.527C345.652 391.772 345.554 392.008 345.38 392.182C345.206 392.355 344.971 392.453 344.725 392.453H224.421C221.059 392.445 217.828 393.749 215.412 396.087C212.997 398.424 211.588 401.611 211.486 404.971Z" fill="#263238"/>
<path d="M224.652 401.451V412.579L228.67 408.549L232.573 412.452V401.451H224.652Z" fill="#407BFF"/>
<path opacity="0.4" d="M211.486 404.971C211.48 406.624 211.8 408.263 212.429 409.792C213.058 411.321 213.983 412.711 215.15 413.881C216.317 415.052 217.705 415.98 219.232 416.614C220.759 417.247 222.397 417.572 224.05 417.57H344.725C344.971 417.57 345.206 417.668 345.38 417.841C345.554 418.015 345.652 418.251 345.652 418.497V419.492C345.652 419.738 345.554 419.974 345.38 420.147C345.206 420.321 344.971 420.419 344.725 420.419H223.355C221.323 420.419 219.311 420.017 217.434 419.235C215.558 418.454 213.855 417.309 212.424 415.867C210.992 414.425 209.86 412.713 209.093 410.831C208.326 408.949 207.939 406.934 207.954 404.902C208.048 400.788 209.758 396.876 212.714 394.013C215.67 391.151 219.634 389.567 223.749 389.604H344.725C344.971 389.604 345.206 389.702 345.38 389.876C345.554 390.049 345.652 390.285 345.652 390.531V391.527C345.652 391.772 345.554 392.008 345.38 392.182C345.206 392.355 344.971 392.453 344.725 392.453H224.421C221.059 392.445 217.828 393.749 215.412 396.087C212.997 398.424 211.588 401.611 211.486 404.971Z" fill="white"/>
<path d="M154.744 388.388H218.642V360.666H154.744V388.388Z" fill="#407BFF"/>
<path opacity="0.8" d="M154.744 388.388H218.642V360.666H154.744V388.388Z" fill="white"/>
<path opacity="0.2" d="M213.524 363.387H154.744V360.677H213.454L213.524 363.387Z" fill="black"/>
<path opacity="0.2" d="M213.524 365.75L160.499 366.884L213.524 368.008V365.75Z" fill="black"/>
<path opacity="0.2" d="M213.524 375.998L157.372 376.947L213.524 377.746V375.998Z" fill="black"/>
<path opacity="0.2" d="M213.524 381.996L157.87 383.12L213.524 384.243V381.996Z" fill="black"/>
<path opacity="0.2" d="M154.744 369.698L208.579 371.32L154.744 372.455V369.698Z" fill="black"/>
<path d="M297.363 374.388C297.357 377.718 296.031 380.909 293.675 383.262C291.32 385.615 288.128 386.938 284.799 386.941H151.791C151.545 386.941 151.309 387.039 151.136 387.212C150.962 387.386 150.864 387.622 150.864 387.867V388.852C150.864 389.097 150.962 389.333 151.136 389.507C151.309 389.681 151.545 389.778 151.791 389.778H285.493C287.527 389.781 289.54 389.381 291.418 388.601C293.295 387.821 295 386.676 296.432 385.233C297.864 383.79 298.996 382.077 299.762 380.194C300.528 378.311 300.913 376.294 300.895 374.261C300.801 370.147 299.091 366.236 296.135 363.373C293.179 360.51 289.215 358.926 285.1 358.964H151.791C151.545 358.964 151.309 359.061 151.136 359.235C150.962 359.409 150.864 359.644 150.864 359.89V360.886C150.864 361.132 150.962 361.367 151.136 361.541C151.309 361.715 151.545 361.812 151.791 361.812H284.428C287.799 361.805 291.039 363.117 293.456 365.467C295.873 367.817 297.275 371.018 297.363 374.388Z" fill="#263238"/>
<path opacity="0.4" d="M297.363 374.388C297.357 377.718 296.031 380.909 293.675 383.262C291.32 385.615 288.128 386.938 284.799 386.941H151.791C151.545 386.941 151.309 387.039 151.136 387.212C150.962 387.386 150.864 387.622 150.864 387.867V388.852C150.864 389.097 150.962 389.333 151.136 389.507C151.309 389.681 151.545 389.778 151.791 389.778H285.493C287.527 389.781 289.54 389.381 291.418 388.601C293.295 387.821 295 386.676 296.432 385.233C297.864 383.79 298.996 382.077 299.762 380.194C300.528 378.311 300.913 376.294 300.895 374.261C300.801 370.147 299.091 366.236 296.135 363.373C293.179 360.51 289.215 358.926 285.1 358.964H151.791C151.545 358.964 151.309 359.061 151.136 359.235C150.962 359.409 150.864 359.644 150.864 359.89V360.886C150.864 361.132 150.962 361.367 151.136 361.541C151.309 361.715 151.545 361.812 151.791 361.812H284.428C287.799 361.805 291.039 363.117 293.456 365.467C295.873 367.817 297.275 371.018 297.363 374.388Z" fill="white"/>
<path d="M345.872 374.55C345.872 378.236 344.408 381.77 341.801 384.376C339.195 386.982 335.661 388.446 331.976 388.446H213.524V360.654H331.987C335.671 360.657 339.202 362.123 341.806 364.728C344.409 367.334 345.872 370.867 345.872 374.55Z" fill="#407BFF"/>
<path opacity="0.7" d="M213.524 360.677V388.469H331.999C335.684 388.469 339.219 387.005 341.825 384.399C344.431 381.793 345.895 378.259 345.895 374.573C345.895 370.888 344.431 367.354 341.825 364.748C339.219 362.142 335.684 360.677 331.999 360.677H213.524Z" fill="white"/>
<path opacity="0.2" d="M213.524 368.008V365.75L331.605 366.699L213.524 368.008Z" fill="black"/>
<path opacity="0.2" d="M213.524 377.746V375.998L266.537 377.897L213.524 377.746Z" fill="black"/>
<path opacity="0.2" d="M213.524 384.243V381.996L298.996 383.293L213.524 384.243Z" fill="black"/>
<path opacity="0.2" d="M332.184 363.387C334.463 363.392 336.661 364.238 338.356 365.761C337.618 367.198 337.032 368.707 336.608 370.266L218.144 371.192L336.341 371.482C336.157 372.436 336.06 373.405 336.052 374.377C336.054 375.546 336.19 376.712 336.457 377.851L256.659 379.588L337.198 380.526C337.896 382.447 338.793 384.291 339.873 386.026C342.297 384.339 344.121 381.924 345.08 379.13C346.039 376.337 346.082 373.311 345.205 370.49C344.327 367.67 342.574 365.203 340.199 363.447C337.824 361.691 334.952 360.737 331.999 360.724H213.524V363.434L332.184 363.387Z" fill="black"/>
<path d="M344.771 374.388C344.765 377.718 343.439 380.909 341.084 383.262C338.729 385.615 335.536 386.938 332.207 386.941H211.532C211.286 386.941 211.051 387.039 210.877 387.212C210.703 387.386 210.606 387.622 210.606 387.867V388.852C210.606 389.097 210.703 389.333 210.877 389.507C211.051 389.681 211.286 389.778 211.532 389.778H332.902C334.935 389.781 336.949 389.381 338.826 388.601C340.704 387.821 342.408 386.676 343.84 385.233C345.273 383.79 346.405 382.077 347.171 380.194C347.937 378.311 348.322 376.294 348.303 374.261C348.209 370.147 346.499 366.236 343.543 363.373C340.587 360.51 336.623 358.926 332.508 358.964H211.532C211.286 358.964 211.051 359.061 210.877 359.235C210.703 359.409 210.606 359.644 210.606 359.89V360.886C210.606 361.132 210.703 361.367 210.877 361.541C211.051 361.715 211.286 361.812 211.532 361.812H331.837C335.208 361.805 338.448 363.117 340.865 365.467C343.282 367.817 344.684 371.018 344.771 374.388Z" fill="#263238"/>
<path d="M331.605 370.868V381.996L327.575 377.966L323.673 381.869V370.868H331.605Z" fill="#407BFF"/>
<path d="M362.906 214.445H360.011C359.473 214.456 358.945 214.595 358.472 214.851C357.999 215.107 357.593 215.472 357.289 215.916L354.418 220.108C353.848 220.936 353.485 221.889 353.36 222.886C353.235 223.884 353.352 224.897 353.7 225.84L354.14 226.998C358.945 227.23 364.318 223.941 364.318 223.941L365.963 223.177C366.303 223.028 366.609 222.814 366.866 222.547C367.122 222.279 367.323 221.963 367.457 221.618C367.59 221.272 367.654 220.903 367.644 220.533C367.634 220.162 367.551 219.797 367.399 219.459L365.928 216.275C365.654 215.711 365.223 215.239 364.687 214.914C364.151 214.59 363.532 214.427 362.906 214.445Z" fill="#EEC1BB"/>
<path d="M308.028 219.552C315.462 225.562 323.487 231.352 332.346 234.896L331.246 234.664C332.057 234.861 334.187 234.05 335.299 233.506C341.483 230.495 347.342 225.979 352.901 221.857C353.469 221.445 354.167 221.25 354.867 221.308C355.567 221.365 356.223 221.672 356.717 222.171C357.211 222.67 357.509 223.33 357.559 224.031C357.609 224.731 357.406 225.426 356.988 225.991C351.441 232.939 338.958 247.055 329.069 244.993C318.23 241.763 308.653 235.729 300.119 228.353C294.584 223.026 302.006 214.7 308.028 219.552Z" fill="#EBC0BB"/>
<path d="M292.43 211.365C289.72 218.915 294.086 226.419 304.589 235.255C309.811 234.479 316.864 223.767 316.864 223.767C316.864 223.767 302.088 208.991 292.43 211.365Z" fill="#407BFF"/>
<path d="M301.462 164.466C301.462 164.466 291.121 153.882 277.642 167.164C264.163 180.446 261.534 224.45 261.534 224.45L296.714 231.283C296.714 231.283 301.265 226.06 303.605 210.994C305.944 195.929 307.183 181.523 310.147 178.165C313.112 174.807 301.462 164.466 301.462 164.466Z" fill="#263238"/>
<path d="M331.675 387.312L324.055 384.278L327.031 373.172L329.775 362.982L339.41 365.113L335.322 376.866L331.675 387.312Z" fill="#EEC1BB"/>
<path opacity="0.2" d="M335.229 377.11L326.95 373.381L329.74 363.086L339.387 365.171L335.229 377.11Z" fill="black"/>
<path d="M274.018 287.249C274.018 287.249 337.708 278.656 355.402 289.958C373.096 301.26 338.831 370.092 338.831 370.092L328.108 367.776C328.108 367.776 336.144 313.211 335.542 310.93C334.94 308.649 304.948 323.529 263.897 324.942L274.018 287.249Z" fill="#263238"/>
<path opacity="0.2" d="M274.018 287.249C274.018 287.249 337.708 278.656 355.402 289.958C373.096 301.26 338.831 370.092 338.831 370.092L328.108 367.776C328.108 367.776 336.144 313.211 335.542 310.93C334.94 308.649 304.948 323.529 263.897 324.942L274.018 287.249Z" fill="black"/>
<path d="M327.517 364.302L341.008 368.679L338.588 374.828L326.197 370.613L327.517 364.302Z" fill="#263238"/>
<path d="M338.727 389.026C337.268 389.026 334.697 386.71 334.164 386.154C334.133 386.125 334.11 386.089 334.095 386.049V385.98C334.092 385.906 334.112 385.833 334.153 385.772C334.222 385.69 335.913 383.456 337.534 383.386C337.779 383.361 338.027 383.391 338.259 383.473C338.491 383.555 338.702 383.687 338.877 383.861C339.283 384.243 339.422 384.614 339.283 384.961C339.063 385.517 338.125 385.818 337.071 386.003C337.924 386.125 338.726 386.482 339.387 387.034C339.503 387.15 339.593 387.29 339.651 387.443C339.709 387.597 339.733 387.761 339.723 387.925C339.723 388.597 339.364 388.863 339.109 388.956C338.987 389.004 338.857 389.027 338.727 389.026ZM335.137 386.281C336.48 387.439 338.264 388.69 338.9 388.435C338.9 388.435 339.132 388.354 339.155 387.891C339.16 387.803 339.146 387.715 339.114 387.633C339.082 387.551 339.033 387.477 338.97 387.416C338.345 386.721 336.411 386.397 335.137 386.304V386.281ZM337.661 383.965H337.557C336.533 384.234 335.626 384.832 334.975 385.667C336.747 385.586 338.553 385.25 338.738 384.776C338.796 384.625 338.599 384.405 338.472 384.289C338.251 384.088 337.96 383.98 337.661 383.988V383.965Z" fill="#577AFA"/>
<path d="M322.63 379.541C322.931 378.684 333.272 382.795 333.272 382.795C333.272 382.795 337.626 391.515 343.463 395.059C349.299 398.602 344.528 401.242 337.476 398.938L320.013 393.252C314.976 391.631 319.515 388.388 322.63 379.541Z" fill="#2E353A"/>
<path opacity="0.4" d="M327.517 364.302L341.008 368.679L338.588 374.828L326.197 370.613L327.517 364.302Z" fill="white"/>
<path d="M364.909 409.348L357.011 411.572L352.611 400.941L348.604 391.191L357.544 387.022L361.447 398.845L364.909 409.348Z" fill="#EEC1BB"/>
<path d="M353.503 405.99C353.503 405.087 364.643 406.071 364.643 406.071C364.643 406.071 371.301 413.193 377.902 414.918C384.502 416.644 380.693 420.535 373.27 420.361L354.916 419.898C349.647 419.77 353.051 415.358 353.503 405.99Z" fill="#2E353A"/>
<path d="M370.491 409.047C368.867 408.827 367.298 408.313 365.859 407.53L365.778 407.472C365.773 407.442 365.773 407.411 365.778 407.38C365.773 407.353 365.773 407.325 365.778 407.299C365.765 407.261 365.765 407.221 365.778 407.183C365.778 407.056 366.808 404.508 368.325 403.917C368.554 403.824 368.8 403.783 369.047 403.797C369.293 403.811 369.533 403.88 369.75 403.998C370.247 404.242 370.479 404.554 370.456 404.936C370.398 405.527 369.564 406.094 368.638 406.558C369.498 406.429 370.377 406.546 371.174 406.893C371.316 406.972 371.44 407.08 371.538 407.209C371.635 407.339 371.705 407.488 371.741 407.646C371.816 407.846 371.828 408.063 371.776 408.27C371.725 408.477 371.612 408.663 371.452 408.804C371.17 408.997 370.83 409.083 370.491 409.047ZM366.82 407.38C368.453 408.109 370.502 408.792 371.047 408.364C371.047 408.364 371.243 408.214 371.139 407.773C371.12 407.687 371.082 407.606 371.028 407.536C370.974 407.466 370.905 407.409 370.827 407.368C370.016 406.882 368.07 407.148 366.82 407.38ZM368.904 404.357C368.758 404.357 368.612 404.385 368.476 404.438C367.582 404.979 366.885 405.79 366.484 406.754C368.163 406.175 369.796 405.33 369.842 404.832C369.842 404.67 369.599 404.508 369.448 404.438C369.276 404.371 369.089 404.343 368.904 404.357Z" fill="#577AFA"/>
<path opacity="0.2" d="M361.516 399.089L352.681 401.161L348.628 391.295L357.556 387.08L361.516 399.089Z" fill="black"/>
<path d="M292.082 295.482C292.082 295.482 291.168 282.883 290.739 280.312C290.385 277.764 289.863 275.242 289.176 272.762C286.385 264.367 248.947 274.244 248.947 274.244L247.882 280.034C247.882 280.034 230.986 311.891 242.277 323.367C245.751 326.841 252.433 328.416 259.299 328.369C259.299 328.369 280.294 329.377 319.342 327.559C319.342 327.559 316.447 350.302 348.628 394.862L359.397 391.388C359.397 391.388 338.136 310.49 336.33 309.054C320.766 296.478 292.082 295.482 292.082 295.482Z" fill="#263238"/>
<path d="M346.682 394.318L360.057 389.581L361.875 395.939L349.473 400.131L346.682 394.318Z" fill="#263238"/>
<path d="M304.67 217.398C304.67 217.398 303.327 220.687 301.451 226.431C300.999 227.774 300.536 229.256 300.049 230.854C299.413 232.95 298.729 235.255 298.046 237.802C297.548 239.609 297.05 241.496 296.564 243.488C296.078 245.48 295.556 247.634 295.059 249.822C295.059 250.077 294.943 250.343 294.896 250.598C292.779 259.558 291.232 268.643 290.264 277.799L249.132 274.21C249.126 265.182 249.594 256.16 250.533 247.182C251.275 239.403 252.713 231.706 254.83 224.184C256.462 218.765 258.57 214.109 261.28 211.064C261.28 211.11 283.583 203.792 304.67 217.398Z" fill="#407BFF"/>
<path d="M283.71 205.204C271.331 201.244 266.525 210.994 266.525 210.994L273.114 210.346L286.489 227.137L294.329 216.981L299.262 219.633C299.262 219.633 294.433 208.632 283.71 205.204Z" fill="#407BFF"/>
<path opacity="0.6" d="M283.71 205.204C271.331 201.244 266.525 210.994 266.525 210.994L273.114 210.346L286.489 227.137L294.329 216.981L299.262 219.633C299.262 219.633 294.433 208.632 283.71 205.204Z" fill="white"/>
<path d="M286.142 226.222L274.793 209.234C280.143 206.814 283.687 196.577 284.463 190.811L292.476 202.923C289.859 206.814 288.11 211.261 294.109 214.619C294.132 214.619 286.13 226.187 286.142 226.222Z" fill="#EEC1BB"/>
<path opacity="0.2" d="M287.728 195.755L292.476 202.923C291.853 203.813 291.314 204.759 290.867 205.749C288.493 204.683 285.968 201.117 286.559 198.65C286.76 197.619 287.157 196.637 287.728 195.755Z" fill="black"/>
<path d="M248.495 275.518L261.361 276.364L260.898 280L247.233 279.015L248.495 275.518Z" fill="black"/>
<path d="M291.295 282.165L262.449 280.104L262.912 276.468L290.832 278.309L291.295 282.165Z" fill="black"/>
<path d="M280.722 282.154H280.607L277.133 281.922C276.718 281.895 276.33 281.707 276.053 281.397C275.776 281.087 275.631 280.681 275.65 280.266L275.743 277.95C275.742 277.731 275.788 277.514 275.878 277.314C275.968 277.115 276.099 276.937 276.264 276.792C276.417 276.646 276.599 276.533 276.799 276.461C276.998 276.389 277.211 276.36 277.422 276.375L281.035 276.584C281.246 276.595 281.452 276.649 281.641 276.741C281.831 276.834 282 276.963 282.139 277.121C282.278 277.28 282.384 277.464 282.451 277.664C282.518 277.864 282.545 278.076 282.529 278.286L282.355 280.695C282.317 281.099 282.128 281.474 281.825 281.745C281.522 282.015 281.128 282.161 280.722 282.154ZM276.855 277.939L276.75 280.255C276.747 280.367 276.787 280.477 276.863 280.561C276.938 280.645 277.043 280.697 277.156 280.706L280.63 280.949C280.745 280.956 280.857 280.917 280.944 280.841C281.031 280.765 281.084 280.659 281.093 280.544L281.267 278.147C281.272 278.089 281.266 278.03 281.248 277.974C281.23 277.918 281.201 277.867 281.162 277.823C281.124 277.781 281.078 277.747 281.026 277.723C280.974 277.699 280.918 277.686 280.861 277.684L277.248 277.475C277.133 277.471 277.021 277.513 276.936 277.591C276.892 277.628 276.857 277.674 276.833 277.726C276.809 277.778 276.797 277.835 276.797 277.892L276.855 277.939Z" fill="white"/>
<path opacity="0.5" d="M346.682 394.318L360.057 389.581L361.875 395.939L349.473 400.131L346.682 394.318Z" fill="white"/>
<path d="M312.579 187.696C312.519 187.697 312.46 187.682 312.409 187.651C312.358 187.62 312.316 187.576 312.29 187.522C311.969 186.897 311.51 186.354 310.948 185.933C310.387 185.511 309.737 185.223 309.047 185.09C309.004 185.089 308.962 185.079 308.923 185.06C308.884 185.041 308.849 185.015 308.821 184.982C308.792 184.95 308.771 184.912 308.758 184.87C308.745 184.829 308.741 184.786 308.746 184.743C308.758 184.66 308.8 184.584 308.864 184.531C308.928 184.477 309.01 184.45 309.094 184.453C309.894 184.59 310.652 184.913 311.306 185.396C311.959 185.878 312.49 186.507 312.857 187.232C312.877 187.269 312.889 187.31 312.893 187.352C312.896 187.394 312.892 187.436 312.879 187.476C312.866 187.516 312.845 187.553 312.817 187.585C312.79 187.617 312.756 187.642 312.718 187.661L312.579 187.696Z" fill="#263238"/>
<path d="M308.711 192.71C308.837 194.317 309.156 195.903 309.661 197.434C309.251 197.685 308.781 197.818 308.3 197.818C307.82 197.818 307.349 197.685 306.94 197.434L308.711 192.71Z" fill="#D4827D"/>
<path d="M311.27 190.984C310.969 191.702 310.344 192.142 309.858 191.934C309.371 191.725 309.221 190.984 309.522 190.266C309.823 189.548 310.448 189.108 310.935 189.317C311.421 189.525 311.56 190.255 311.27 190.984Z" fill="#263238"/>
<path d="M310.715 189.271H312.533C312.533 189.271 311.213 190.301 310.715 189.271Z" fill="#263238"/>
<path d="M284.613 197.214C284.657 197.333 284.715 197.446 284.787 197.55C284.903 197.782 285.03 197.99 285.157 198.222C285.901 199.647 286.911 200.917 288.134 201.962C292.082 205.239 295.487 206.281 298.556 205.436C298.706 205.436 298.845 205.343 298.996 205.297C303.535 203.583 307.102 198.349 310.124 191.285C311.433 188.55 312.289 185.621 312.66 182.612C312.66 182.612 312.66 182.508 312.66 182.485C312.66 182.461 312.66 182.241 312.66 182.137C312.808 180.406 312.521 178.666 311.825 177.075C311.13 175.483 310.047 174.09 308.676 173.024C307.506 172.06 306.232 171.229 304.878 170.546C291.723 163.713 278.256 184.499 284.613 197.214Z" fill="#EEC1BB"/>
<path d="M312.66 182.496C312.66 182.496 308.7 192.177 297.861 191.76C297.861 191.76 289.199 199.53 283.56 196.855C275.859 193.208 274.608 179.01 282.795 169.318C293.437 156.742 315.671 166.492 312.66 182.496Z" fill="#263238"/>
<path d="M303.709 191.343C304.438 189.884 304.496 186.862 302.076 186.051C299.656 185.241 295.36 190.324 300.455 194.505C301.184 195.107 302.238 194.377 303.709 191.343Z" fill="#EEC1BB"/>
<path d="M301.462 164.466C301.462 164.466 311.479 166.689 314.582 172.734C318.218 179.798 318.218 185.206 308.051 188.483C308.051 188.483 295.58 176.139 290.102 174.668C286.909 173.791 283.647 173.182 280.352 172.85C284.277 162.474 297.513 159.95 301.462 164.466Z" fill="#263238"/>
<path d="M297.884 191.76C291.584 204.348 277.735 225.736 262.97 210.647C262.97 210.647 268.274 193.578 278.985 186.538C289.697 179.497 297.884 191.76 297.884 191.76Z" fill="#263238"/>
<path d="M295.603 212.755C300.987 216.738 294.097 229.847 300.895 232.765C300.256 231.882 299.855 230.849 299.729 229.767C299.603 228.684 299.757 227.587 300.177 226.581C301.601 223.014 307.38 213.588 305.075 200.827L295.603 212.755Z" fill="#263238"/>
<path opacity="0.2" d="M267.707 240.396C267.707 240.396 258.906 246.36 250.58 247.101C251.311 239.351 252.733 231.681 254.83 224.184C255.895 223.584 257.083 223.236 258.304 223.165C264.487 223.281 266.746 229.082 266.746 229.082C267.415 232.816 267.737 236.603 267.707 240.396Z" fill="black"/>
<path d="M299.829 281.702L297.977 279.479C297.628 279.073 297.188 278.756 296.693 278.554C296.197 278.353 295.661 278.273 295.128 278.321L290.056 278.691C289.053 278.764 288.083 279.077 287.227 279.603C286.37 280.129 285.653 280.852 285.134 281.713L284.486 282.79C287.311 286.693 293.229 288.835 293.229 288.835L294.85 289.634C295.176 289.81 295.533 289.92 295.902 289.957C296.27 289.994 296.642 289.957 296.996 289.85C297.351 289.742 297.68 289.565 297.965 289.329C298.251 289.094 298.487 288.804 298.66 288.476L300.281 285.28C300.572 284.707 300.684 284.06 300.603 283.422C300.523 282.784 300.253 282.185 299.829 281.702Z" fill="#EEC1BB"/>
<path d="M264.175 228.469C264.033 235.762 264.557 243.052 265.738 250.251C266.172 252.553 266.732 254.83 267.417 257.071L266.907 256.064C269.582 260.151 273.496 263.938 276.913 267.644L282.633 273.55L288.423 279.49C288.933 280.004 289.235 280.688 289.27 281.411C289.305 282.134 289.072 282.845 288.614 283.406C288.157 283.967 287.508 284.338 286.793 284.449C286.078 284.56 285.346 284.402 284.741 284.006C282.344 282.489 280.109 280.891 277.793 279.27C270.729 273.955 263.607 268.987 258.107 261.9C253.312 251.281 252.143 239.481 252.548 227.948C253.231 220.247 264.395 220.814 264.302 228.538L264.175 228.469Z" fill="#EBC0BB"/>
<path d="M260.886 211.18C253.301 213.785 250.163 221.891 249.827 235.602C253.706 239.203 266.468 238.011 266.468 238.011C266.468 238.011 268.772 217.236 260.886 211.18Z" fill="#407BFF"/>
<path d="M342.618 292.356V295.98C342.618 296.918 341.46 297.3 340.579 297.3H267.498C266.56 297.3 265.425 296.918 265.425 295.98V292.321L342.618 292.356Z" fill="#263238"/>
<path opacity="0.4" d="M342.618 292.356V295.98C342.618 296.918 341.46 297.3 340.579 297.3H267.498C266.56 297.3 265.425 296.918 265.425 295.98V292.321L342.618 292.356Z" fill="white"/>
<path opacity="0.2" d="M342.617 292.356V295.98C342.617 296.918 341.459 297.3 340.579 297.3H292.383C291.445 297.3 290.334 296.918 290.334 295.98V292.321L342.617 292.356Z" fill="black"/>
<path d="M354.846 254.396L346.138 293.849C345.984 294.485 345.622 295.05 345.11 295.457C344.599 295.864 343.966 296.089 343.312 296.096H295.834C295.539 296.087 295.25 296.011 294.989 295.872C294.728 295.734 294.503 295.537 294.331 295.297C294.158 295.058 294.043 294.781 293.995 294.49C293.946 294.199 293.965 293.9 294.051 293.618L302.748 254.454C302.924 253.858 303.299 253.34 303.812 252.988C304.324 252.636 304.942 252.471 305.562 252.52H353.097C354.348 252.52 355.124 253.134 354.846 254.396Z" fill="#263238"/>
<path opacity="0.4" d="M354.846 254.396L346.138 293.849C345.984 294.485 345.622 295.05 345.11 295.457C344.599 295.864 343.966 296.089 343.312 296.096H297.409C297.113 296.089 296.823 296.014 296.56 295.876C296.298 295.738 296.071 295.542 295.898 295.302C295.724 295.062 295.608 294.785 295.559 294.493C295.51 294.201 295.529 293.901 295.614 293.618L304.311 254.454C304.487 253.856 304.865 253.337 305.38 252.985C305.894 252.632 306.515 252.468 307.137 252.52H353.051C354.348 252.52 355.124 253.134 354.846 254.396Z" fill="white"/>
<path opacity="0.2" d="M331.408 274.453C331.408 277.823 327.784 280.567 325.132 280.567C322.48 280.567 320.905 277.823 321.658 274.453C322.41 271.083 325.062 268.431 327.656 268.339C326.903 271.708 328.525 274.453 331.13 274.453H331.408Z" fill="black"/>
</svg>
